<?xml version="1.0" encoding="UTF-8"?> <svg xmlns="http://www.w3.org/2000/svg" width="334" height="334" fill="none" version="1.1" viewBox="0 0 334 334"><path d="m1.1229 184.74c0.17433 0 0.31565-0.141 0.31565-0.315s-0.14132-0.316-0.31565-0.316c-0.17434 0-0.31566 0.142-0.31566 0.316s0.14132 0.315 0.31566 0.315zm9.031-6.221c0.31 0 0.5612-0.251 0.5612-0.561 0-0.309-0.2512-0.56-0.5612-0.56-0.30988 0-0.56113 0.251-0.56113 0.56 0 0.31 0.25125 0.561 0.56113 0.561zm6.2781-5.363c0.4939 0 0.8943-0.4 0.8943-0.894s-0.4004-0.894-0.8943-0.894c-0.494 0-0.8944 0.4-0.8944 0.894s0.4004 0.894 0.8944 0.894zm7.8388-5.047c0.6198 0 1.1223-0.502 1.1223-1.122 0-0.619-0.5025-1.121-1.1223-1.121-0.6199 0-1.1224 0.502-1.1224 1.121 0 0.62 0.5025 1.122 1.1224 1.122zm7.1712-4.452c0.7651 0 1.3854-0.62 1.3854-1.384 0-0.765-0.6203-1.385-1.3854-1.385s-1.3854 0.62-1.3854 1.385c0 0.764 0.6203 1.384 1.3854 1.384zm8.6992-3.295c1.23 0 2.2271-0.996 2.2271-2.225s-0.9971-2.226-2.2271-2.226-2.2271 0.997-2.2271 2.226 0.9971 2.225 2.2271 2.225zm292.74-10.462c0.174 0 0.316-0.141 0.316-0.315s-0.142-0.316-0.316-0.316-0.315 0.142-0.315 0.316 0.141 0.315 0.315 0.315zm-9.013 6.713c0.31 0 0.561-0.251 0.561-0.561s-0.251-0.561-0.561-0.561-0.561 0.251-0.561 0.561 0.251 0.561 0.561 0.561zm-6.296 6.028c0.494 0 0.895-0.4 0.895-0.894 0-0.493-0.401-0.894-0.895-0.894s-0.894 0.401-0.894 0.894c0 0.494 0.4 0.894 0.894 0.894zm-7.82 5.486c0.62 0 1.122-0.502 1.122-1.122 0-0.619-0.502-1.121-1.122-1.121s-1.123 0.502-1.123 1.121c0 0.62 0.503 1.122 1.123 1.122zm-7.174 4.994c0.765 0 1.386-0.619 1.386-1.384s-0.621-1.385-1.386-1.385-1.385 0.62-1.385 1.385 0.62 1.384 1.385 1.384zm-8.697 4.977c1.23 0 2.227-0.996 2.227-2.226 0-1.229-0.997-2.225-2.227-2.225s-2.227 0.996-2.227 2.225c0 1.23 0.997 2.226 2.227 2.226zm-293.56-4.959c0.17433 0 0.31566-0.141 0.31566-0.315 0-0.175-0.14132-0.316-0.31566-0.316-0.17433 0-0.31566 0.141-0.31566 0.316 0 0.174 0.14132 0.315 0.31566 0.315zm9.4535-5.59c0.30992 0 0.56112-0.252 0.56112-0.561 0-0.31-0.2512-0.561-0.56112-0.561-0.30993 0-0.56117 0.251-0.56117 0.561 0 0.309 0.25124 0.561 0.56117 0.561zm6.6628-4.89c0.4939 0 0.8943-0.4 0.8943-0.894s-0.4004-0.894-0.8943-0.894c-0.494 0-0.8944 0.4-0.8944 0.894s0.4004 0.894 0.8944 0.894zm8.1894-4.487c0.6198 0 1.1223-0.502 1.1223-1.121 0-0.62-0.5025-1.122-1.1223-1.122-0.6199 0-1.1224 0.502-1.1224 1.122 0 0.619 0.5025 1.121 1.1224 1.121zm7.4695-3.96c0.7652 0 1.3854-0.62 1.3854-1.385s-0.6202-1.384-1.3854-1.384c-0.7651 0-1.3853 0.619-1.3853 1.384s0.6202 1.385 1.3853 1.385zm8.962-2.664c1.2301 0 2.2272-0.997 2.2272-2.226s-0.9971-2.226-2.2272-2.226c-1.23 0-2.2271 0.997-2.2271 2.226s0.9971 2.226 2.2271 2.226zm292.63 9.954c0.174 0 0.315-0.141 0.315-0.315 0-0.175-0.141-0.316-0.315-0.316-0.175 0-0.316 0.141-0.316 0.316 0 0.174 0.141 0.315 0.316 0.315zm-9.452 6.064c0.31 0 0.561-0.251 0.561-0.561s-0.251-0.561-0.561-0.561-0.561 0.251-0.561 0.561 0.251 0.561 0.561 0.561zm-6.665 5.573c0.494 0 0.895-0.4 0.895-0.894s-0.401-0.894-0.895-0.894-0.894 0.4-0.894 0.894 0.4 0.894 0.894 0.894zm-8.172 4.942c0.62 0 1.122-0.502 1.122-1.122 0-0.619-0.502-1.121-1.122-1.121s-1.123 0.502-1.123 1.121c0 0.62 0.503 1.122 1.123 1.122zm-7.488 4.486c0.765 0 1.386-0.619 1.386-1.384s-0.621-1.385-1.386-1.385-1.385 0.62-1.385 1.385 0.62 1.384 1.385 1.384zm-8.961 4.347c1.23 0 2.227-0.997 2.227-2.226s-0.997-2.226-2.227-2.226-2.227 0.997-2.227 2.226 0.997 2.226 2.227 2.226zm-292.63-25.412c0.17433 0 0.31566-0.141 0.31566-0.315 0-0.175-0.14132-0.316-0.31566-0.316-0.17433 0-0.31566 0.141-0.31566 0.316 0 0.174 0.14132 0.315 0.31566 0.315zm9.8382-4.907c0.31 0 0.5612-0.251 0.5612-0.561s-0.2512-0.561-0.5612-0.561c-0.30988 0-0.56113 0.251-0.56113 0.561s0.25125 0.561 0.56113 0.561zm7.0129-4.434c0.494 0 0.8944-0.4 0.8944-0.894 0-0.493-0.4004-0.894-0.8944-0.894-0.4939 0-0.8943 0.401-0.8943 0.894 0 0.494 0.4004 0.894 0.8943 0.894zm8.4887-3.891c0.6199 0 1.1224-0.502 1.1224-1.121 0-0.62-0.5025-1.122-1.1224-1.122-0.6198 0-1.1223 0.502-1.1223 1.122 0 0.619 0.5025 1.121 1.1223 1.121zm7.7504-3.417c0.7651 0 1.3854-0.62 1.3854-1.385 0-0.764-0.6203-1.384-1.3854-1.384s-1.3854 0.62-1.3854 1.384c0 0.765 0.6203 1.385 1.3854 1.385zm9.1898-2.051c1.23 0 2.2271-0.996 2.2271-2.225 0-1.23-0.9971-2.226-2.2271-2.226s-2.2272 0.996-2.2272 2.226c0 1.229 0.9972 2.225 2.2272 2.225zm291.09 30.337c0.174 0 0.315-0.141 0.315-0.315 0-0.175-0.141-0.316-0.315-0.316-0.175 0-0.316 0.141-0.316 0.316 0 0.174 0.141 0.315 0.316 0.315zm-9.839 5.397c0.31 0 0.562-0.251 0.562-0.561 0-0.309-0.252-0.56-0.562-0.56s-0.561 0.251-0.561 0.56c0 0.31 0.251 0.561 0.561 0.561zm-6.997 5.083c0.494 0 0.894-0.4 0.894-0.894s-0.4-0.894-0.894-0.894-0.894 0.4-0.894 0.894 0.4 0.894 0.894 0.894zm-8.505 4.364c0.619 0 1.122-0.503 1.122-1.122s-0.503-1.122-1.122-1.122c-0.62 0-1.123 0.503-1.123 1.122s0.503 1.122 1.123 1.122zm-7.752 3.943c0.766 0 1.386-0.62 1.386-1.385 0-0.764-0.62-1.384-1.386-1.384-0.765 0-1.385 0.62-1.385 1.384 0 0.765 0.62 1.385 1.385 1.385zm-9.188 3.733c1.23 0 2.228-0.996 2.228-2.225 0-1.23-0.998-2.226-2.228-2.226s-2.227 0.996-2.227 2.226c0 1.229 0.997 2.225 2.227 2.225zm-290.28-45.759c0.17433 0 0.31565-0.141 0.31565-0.315s-0.14132-0.316-0.31565-0.316c-0.17434 0-0.31566 0.142-0.31566 0.316s0.14132 0.315 0.31566 0.315zm10.171-4.206c0.3099 0 0.5611-0.251 0.5611-0.561s-0.2512-0.561-0.5611-0.561-0.5612 0.251-0.5612 0.561 0.2513 0.561 0.5612 0.561zm7.3293-3.926c0.4939 0 0.8943-0.4 0.8943-0.893 0-0.494-0.4004-0.894-0.8943-0.894-0.494 0-0.8944 0.4-0.8944 0.894 0 0.493 0.4004 0.893 0.8944 0.893zm8.769-3.312c0.6198 0 1.1223-0.502 1.1223-1.122 0-0.619-0.5025-1.121-1.1223-1.121-0.6199 0-1.1224 0.502-1.1224 1.121 0 0.62 0.5025 1.122 1.1224 1.122zm7.9964-2.875c0.7651 0 1.3854-0.619 1.3854-1.384s-0.6203-1.385-1.3854-1.385-1.3854 0.62-1.3854 1.385 0.6203 1.384 1.3854 1.384zm9.3647-1.384c1.23 0 2.2271-0.997 2.2271-2.226s-0.9971-2.226-2.2271-2.226-2.2271 0.997-2.2271 2.226 0.9971 2.226 2.2271 2.226zm288.12 50.543c0.174 0 0.316-0.141 0.316-0.315s-0.142-0.316-0.316-0.316-0.315 0.142-0.315 0.316 0.141 0.315 0.315 0.315zm-10.17 4.698c0.31 0 0.561-0.251 0.561-0.561s-0.251-0.561-0.561-0.561-0.561 0.251-0.561 0.561 0.251 0.561 0.561 0.561zm-7.331 4.591c0.494 0 0.895-0.4 0.895-0.894 0-0.493-0.401-0.893-0.895-0.893s-0.894 0.4-0.894 0.893c0 0.494 0.4 0.894 0.894 0.894zm-8.749 3.768c0.62 0 1.122-0.502 1.122-1.122 0-0.619-0.502-1.121-1.122-1.121s-1.123 0.502-1.123 1.121c0 0.62 0.503 1.122 1.123 1.122zm-7.998 3.383c0.765 0 1.385-0.62 1.385-1.385s-0.62-1.384-1.385-1.384-1.385 0.619-1.385 1.384 0.62 1.385 1.385 1.385zm-9.382 3.084c1.23 0 2.227-0.997 2.227-2.226s-0.997-2.226-2.227-2.226-2.227 0.997-2.227 2.226 0.997 2.226 2.227 2.226zm-286.49-65.895c0.17433 0 0.31565-0.142 0.31565-0.316s-0.14132-0.315-0.31565-0.315c-0.17434 0-0.31566 0.141-0.31566 0.315s0.14132 0.316 0.31566 0.316zm10.451-3.488c0.3099 0 0.5612-0.251 0.5612-0.561s-0.2513-0.561-0.5612-0.561-0.5612 0.251-0.5612 0.561 0.2513 0.561 0.5612 0.561zm7.6116-3.4c0.494 0 0.8944-0.4 0.8944-0.894 0-0.493-0.4004-0.894-0.8944-0.894-0.4939 0-0.8943 0.401-0.8943 0.894 0 0.494 0.4004 0.894 0.8943 0.894zm8.978-2.681c0.6198 0 1.1223-0.502 1.1223-1.122 0-0.619-0.5025-1.121-1.1223-1.121-0.6199 0-1.1223 0.502-1.1223 1.121 0 0.62 0.5024 1.122 1.1223 1.122zm8.207-2.314c0.7651 0 1.3854-0.62 1.3854-1.384 0-0.765-0.6203-1.385-1.3854-1.385s-1.3854 0.62-1.3854 1.385c0 0.764 0.6203 1.384 1.3854 1.384zm9.4865-0.736c1.2301 0 2.2272-0.997 2.2272-2.226s-0.9971-2.226-2.2272-2.226c-1.23 0-2.2271 0.997-2.2271 2.226s0.9971 2.226 2.2271 2.226zm283.78 70.505c0.175 0 0.316-0.141 0.316-0.315 0-0.175-0.141-0.316-0.316-0.316-0.174 0-0.315 0.141-0.315 0.316 0 0.174 0.141 0.315 0.315 0.315zm-10.469 3.995c0.31 0 0.561-0.251 0.561-0.56 0-0.31-0.251-0.561-0.561-0.561s-0.561 0.251-0.561 0.561c0 0.309 0.251 0.56 0.561 0.56zm-7.593 4.067c0.494 0 0.894-0.4 0.894-0.894s-0.4-0.894-0.894-0.894-0.894 0.4-0.894 0.894 0.4 0.894 0.894 0.894zm-8.996 3.137c0.62 0 1.123-0.503 1.123-1.122 0-0.62-0.503-1.122-1.123-1.122s-1.122 0.502-1.122 1.122c0 0.619 0.502 1.122 1.122 1.122zm-8.191 2.821c0.765 0 1.385-0.619 1.385-1.384s-0.62-1.385-1.385-1.385-1.385 0.62-1.385 1.385 0.62 1.384 1.385 1.384zm-9.503 2.419c1.23 0 2.227-0.997 2.227-2.226s-0.997-2.226-2.227-2.226-2.227 0.997-2.227 2.226 0.997 2.226 2.227 2.226zm-281.34-85.699c0.17433 0 0.31566-0.141 0.31566-0.315 0-0.175-0.14133-0.316-0.31566-0.316s-0.31565 0.141-0.31565 0.316c0 0.174 0.14132 0.315 0.31565 0.315zm10.682-2.752c0.31 0 0.5612-0.251 0.5612-0.561s-0.2512-0.561-0.5612-0.561c-0.3099 0-0.5611 0.251-0.5611 0.561s0.2512 0.561 0.5611 0.561zm7.8557-2.874c0.4939 0 0.8944-0.4 0.8944-0.894s-0.4005-0.894-0.8944-0.894c-0.494 0-0.8944 0.4-0.8944 0.894s0.4004 0.894 0.8944 0.894zm9.1718-2.033c0.6199 0 1.1223-0.503 1.1223-1.122s-0.5024-1.122-1.1223-1.122c-0.6198 0-1.1223 0.503-1.1223 1.122s0.5025 1.122 1.1223 1.122zm8.3456-1.736c0.7651 0 1.3854-0.619 1.3854-1.384s-0.6203-1.385-1.3854-1.385-1.3854 0.62-1.3854 1.385 0.6203 1.384 1.3854 1.384zm9.5947-0.07c1.23 0 2.2271-0.996 2.2271-2.225 0-1.23-0.9971-2.226-2.2271-2.226-1.2301 0-2.2272 0.996-2.2272 2.226 0 1.229 0.9971 2.225 2.2272 2.225zm278.02 90.117c0.174 0 0.316-0.142 0.316-0.316s-0.142-0.315-0.316-0.315-0.316 0.141-0.316 0.315 0.142 0.316 0.316 0.316zm-10.697 3.242c0.31 0 0.561-0.252 0.561-0.561 0-0.31-0.251-0.561-0.561-0.561s-0.562 0.251-0.562 0.561c0 0.309 0.252 0.561 0.562 0.561zm-7.856 3.523c0.494 0 0.895-0.4 0.895-0.894s-0.401-0.894-0.895-0.894-0.894 0.4-0.894 0.894 0.4 0.894 0.894 0.894zm-9.172 2.505c0.62 0 1.122-0.502 1.122-1.121 0-0.62-0.502-1.122-1.122-1.122s-1.122 0.502-1.122 1.122c0 0.619 0.502 1.121 1.122 1.121zm-8.346 2.261c0.765 0 1.385-0.62 1.385-1.384 0-0.765-0.62-1.385-1.385-1.385-0.766 0-1.386 0.62-1.386 1.385 0 0.764 0.62 1.384 1.386 1.384zm-9.593 1.753c1.23 0 2.227-0.997 2.227-2.226s-0.997-2.226-2.227-2.226-2.227 0.997-2.227 2.226 0.997 2.226 2.227 2.226zm-274.8-105.12c0.17433 0 0.31565-0.141 0.31565-0.316 0-0.174-0.14132-0.315-0.31565-0.315s-0.31566 0.141-0.31566 0.315c0 0.175 0.14133 0.316 0.31566 0.316zm10.872-1.998c0.3099 0 0.5612-0.251 0.5612-0.561s-0.2513-0.561-0.5612-0.561-0.5612 0.251-0.5612 0.561 0.2513 0.561 0.5612 0.561zm8.0485-2.313c0.494 0 0.8944-0.4 0.8944-0.894 0-0.493-0.4004-0.894-0.8944-0.894-0.4939 0-0.8943 0.401-0.8943 0.894 0 0.494 0.4004 0.894 0.8943 0.894zm9.312-1.402c0.6198 0 1.1223-0.502 1.1223-1.121 0-0.62-0.5025-1.122-1.1223-1.122-0.6199 0-1.1224 0.502-1.1224 1.122 0 0.619 0.5025 1.121 1.1224 1.121zm8.4696-1.139c0.7651 0 1.3853-0.62 1.3853-1.384 0-0.765-0.6202-1.385-1.3853-1.385-0.7652 0-1.3854 0.62-1.3854 1.385 0 0.764 0.6202 1.384 1.3854 1.384zm9.6269 0.596c1.23 0 2.2271-0.997 2.2271-2.226s-0.9971-2.226-2.2271-2.226-2.2272 0.997-2.2272 2.226 0.9972 2.226 2.2272 2.226zm270.92 109.27c0.174 0 0.316-0.141 0.316-0.316 0-0.174-0.142-0.315-0.316-0.315s-0.316 0.141-0.316 0.315c0 0.175 0.142 0.316 0.316 0.316zm-10.891 2.488c0.31 0 0.561-0.251 0.561-0.56 0-0.31-0.251-0.561-0.561-0.561s-0.561 0.251-0.561 0.561c0 0.309 0.251 0.56 0.561 0.56zm-8.049 2.98c0.494 0 0.895-0.401 0.895-0.894 0-0.494-0.401-0.894-0.895-0.894s-0.894 0.4-0.894 0.894c0 0.493 0.4 0.894 0.894 0.894zm-9.293 1.858c0.62 0 1.123-0.502 1.123-1.122 0-0.619-0.503-1.121-1.123-1.121s-1.122 0.502-1.122 1.121c0 0.62 0.502 1.122 1.122 1.122zm-8.49 1.665c0.765 0 1.386-0.62 1.386-1.385 0-0.764-0.621-1.384-1.386-1.384s-1.385 0.62-1.385 1.384c0 0.765 0.62 1.385 1.385 1.385zm-9.608 1.085c1.23 0 2.227-0.996 2.227-2.226 0-1.229-0.997-2.225-2.227-2.225s-2.227 0.996-2.227 2.225c0 1.23 0.997 2.226 2.227 2.226zm-266.94-124.03c0.1744 0 0.3157-0.141 0.3157-0.315 0-0.175-0.1413-0.316-0.3157-0.316-0.1743 0-0.3156 0.141-0.3156 0.316 0 0.174 0.1413 0.315 0.3156 0.315zm10.996-1.226c0.3099 0 0.5612-0.252 0.5612-0.561 0-0.31-0.2513-0.561-0.5612-0.561s-0.5612 0.251-0.5612 0.561c0 0.309 0.2513 0.561 0.5612 0.561zm8.2235-1.753c0.4939 0 0.8943-0.4 0.8943-0.894 0-0.493-0.4004-0.894-0.8943-0.894-0.494 0-0.8944 0.401-0.8944 0.894 0 0.494 0.4004 0.894 0.8944 0.894zm9.3997-0.753c0.6198 0 1.1223-0.503 1.1223-1.122 0-0.6196-0.5025-1.1218-1.1223-1.1218-0.6199 0-1.1224 0.5022-1.1224 1.1218 0 0.619 0.5025 1.122 1.1224 1.122zm8.5415-0.544c0.7651 0 1.3853-0.6197 1.3853-1.3843 0-0.7647-0.6202-1.3846-1.3853-1.3846-0.7652 0-1.3854 0.6199-1.3854 1.3846 0 0.7646 0.6202 1.3843 1.3854 1.3843zm9.6269 1.279c1.23 0 2.2271-0.997 2.2271-2.2259 0-1.2293-0.9971-2.2258-2.2271-2.2258s-2.2272 0.9965-2.2272 2.2258c0 1.2289 0.9972 2.2259 2.2272 2.2259zm262.5 127.88c0.174 0 0.315-0.141 0.315-0.315s-0.141-0.316-0.315-0.316c-0.175 0-0.316 0.142-0.316 0.316s0.141 0.315 0.316 0.315zm-11.013 1.718c0.31 0 0.561-0.251 0.561-0.56 0-0.31-0.251-0.561-0.561-0.561s-0.561 0.251-0.561 0.561c0 0.309 0.251 0.56 0.561 0.56zm-8.225 2.419c0.494 0 0.894-0.4 0.894-0.894s-0.4-0.894-0.894-0.894-0.895 0.4-0.895 0.894 0.401 0.894 0.895 0.894zm-9.381 1.209c0.62 0 1.122-0.502 1.122-1.122 0-0.619-0.502-1.121-1.122-1.121s-1.122 0.502-1.122 1.121c0 0.62 0.502 1.122 1.122 1.122zm-8.558 1.069c0.765 0 1.385-0.62 1.385-1.385 0-0.764-0.62-1.384-1.385-1.384s-1.386 0.62-1.386 1.384c0 0.765 0.621 1.385 1.386 1.385zm-9.627 0.403c1.23 0 2.227-0.997 2.227-2.226s-0.997-2.226-2.227-2.226-2.227 0.997-2.227 2.226 0.997 2.226 2.227 2.226zm-257.75-142.32c0.1744 0 0.3157-0.1412 0.3157-0.3154 0-0.1743-0.1413-0.3155-0.3157-0.3155-0.1743 0-0.3156 0.1412-0.3156 0.3155 0 0.1742 0.1413 0.3154 0.3156 0.3154zm11.083-0.4732c0.3099 0 0.5611-0.251 0.5611-0.5608 0-0.3097-0.2512-0.5608-0.5611-0.5608s-0.5612 0.2511-0.5612 0.5608c0 0.3098 0.2513 0.5608 0.5612 0.5608zm8.3298-1.1565c0.4939 0 0.8943-0.4002 0.8943-0.8938s-0.4004-0.8938-0.8943-0.8938c-0.494 0-0.8944 0.4002-0.8944 0.8938s0.4004 0.8938 0.8944 0.8938zm9.4535-0.1053c0.6199 0 1.1224-0.5022 1.1224-1.1217 0-0.6194-0.5025-1.1216-1.1224-1.1216-0.6198 0-1.1223 0.5022-1.1223 1.1216 0 0.6195 0.5025 1.1217 1.1223 1.1217zm8.5736 0.0521c0.7651 0 1.3854-0.6199 1.3854-1.3845 0-0.7647-0.6203-1.3846-1.3854-1.3846s-1.3854 0.6199-1.3854 1.3846c0 0.7646 0.6203 1.3845 1.3854 1.3845zm9.5752 1.9456c1.23 0 2.2271-0.9965 2.2271-2.2257 0-1.2293-0.9971-2.2258-2.2271-2.2258s-2.2272 0.9965-2.2272 2.2258c0 1.2292 0.9972 2.2257 2.2272 2.2257zm252.81 145.86c0.174 0 0.316-0.142 0.316-0.316s-0.142-0.315-0.316-0.315-0.315 0.141-0.315 0.315 0.141 0.316 0.315 0.316zm-11.082 0.964c0.309 0 0.561-0.251 0.561-0.561 0-0.309-0.252-0.561-0.561-0.561-0.31 0-0.562 0.252-0.562 0.561 0 0.31 0.252 0.561 0.562 0.561zm-8.348 1.822c0.494 0 0.894-0.4 0.894-0.894 0-0.493-0.4-0.893-0.894-0.893s-0.894 0.4-0.894 0.893c0 0.494 0.4 0.894 0.894 0.894zm-9.453 0.561c0.62 0 1.122-0.502 1.122-1.121 0-0.62-0.502-1.122-1.122-1.122s-1.122 0.502-1.122 1.122c0 0.619 0.502 1.121 1.122 1.121zm-8.574 0.456c0.765 0 1.385-0.62 1.385-1.385s-0.62-1.384-1.385-1.384c-0.766 0-1.386 0.619-1.386 1.384s0.62 1.385 1.386 1.385zm-9.575-0.245c1.23 0 2.227-0.997 2.227-2.226s-0.997-2.226-2.227-2.226-2.227 0.997-2.227 2.226 0.997 2.226 2.227 2.226zm-247.34-159.97c0.1743 0 0.3157-0.1413 0.3157-0.3155s-0.1414-0.3155-0.3157-0.3155-0.3156 0.1413-0.3156 0.3155 0.1413 0.3155 0.3156 0.3155zm11.119 0.3154c0.3099 0 0.5611-0.2511 0.5611-0.5608 0-0.3098-0.2512-0.5609-0.5611-0.5609-0.31 0-0.5612 0.2511-0.5612 0.5609 0 0.3097 0.2512 0.5608 0.5612 0.5608zm8.4186-0.5784c0.4939 0 0.8944-0.4002 0.8944-0.8938 0-0.4937-0.4005-0.8938-0.8944-0.8938s-0.8944 0.4001-0.8944 0.8938c0 0.4936 0.4005 0.8938 0.8944 0.8938zm9.4521 0.5608c0.6199 0 1.1223-0.5021 1.1223-1.1216 0-0.6194-0.5024-1.1216-1.1223-1.1216-0.6198 0-1.1223 0.5022-1.1223 1.1216 0 0.6195 0.5025 1.1216 1.1223 1.1216zm8.5736 0.6481c0.7651 0 1.3854-0.6198 1.3854-1.3845 0-0.7646-0.6203-1.3845-1.3854-1.3845s-1.3854 0.6199-1.3854 1.3845c0 0.7647 0.6203 1.3845 1.3854 1.3845zm9.4713 2.6119c1.23 0 2.2271-0.9965 2.2271-2.2257 0-1.2293-0.9971-2.2258-2.2271-2.2258s-2.2272 0.9965-2.2272 2.2258c0 1.2292 0.9972 2.2257 2.2272 2.2257zm241.86 163.13c0.174 0 0.315-0.141 0.315-0.315 0-0.175-0.141-0.316-0.315-0.316-0.175 0-0.316 0.141-0.316 0.316 0 0.174 0.141 0.315 0.316 0.315zm-11.101 0.193c0.31 0 0.562-0.251 0.562-0.561 0-0.309-0.252-0.561-0.562-0.561s-0.561 0.252-0.561 0.561c0 0.31 0.251 0.561 0.561 0.561zm-8.434 1.244c0.494 0 0.894-0.4 0.894-0.894 0-0.493-0.4-0.893-0.894-0.893s-0.894 0.4-0.894 0.893c0 0.494 0.4 0.894 0.894 0.894zm-9.435-0.105c0.62 0 1.123-0.502 1.123-1.122 0-0.619-0.503-1.121-1.123-1.121s-1.122 0.502-1.122 1.121c0 0.62 0.502 1.122 1.122 1.122zm-8.576-0.14c0.765 0 1.385-0.62 1.385-1.384 0-0.765-0.62-1.385-1.385-1.385s-1.385 0.62-1.385 1.385c0 0.764 0.62 1.384 1.385 1.384zm-9.47-0.911c1.23 0 2.227-0.997 2.227-2.226s-0.997-2.226-2.227-2.226-2.227 0.997-2.227 2.226 0.997 2.226 2.227 2.226zm-235.71-176.83c0.1744 0 0.3157-0.1413 0.3157-0.3155s-0.1413-0.3155-0.3157-0.3155c-0.1743 0-0.3156 0.1413-0.3156 0.3155s0.1413 0.3155 0.3156 0.3155zm11.082 1.0859c0.31 0 0.5612-0.2511 0.5612-0.5608 0-0.3098-0.2512-0.5608-0.5612-0.5608-0.3099 0-0.5611 0.251-0.5611 0.5608 0 0.3097 0.2512 0.5608 0.5611 0.5608zm8.4695 0.0178c0.4939 0 0.8943-0.4002 0.8943-0.8938 0-0.4937-0.4004-0.8938-0.8943-0.8938-0.494 0-0.8944 0.4001-0.8944 0.8938 0 0.4936 0.4004 0.8938 0.8944 0.8938zm9.3822 1.2271c0.6199 0 1.1224-0.5022 1.1224-1.1216 0-0.6195-0.5025-1.1217-1.1224-1.1217-0.6198 0-1.1223 0.5022-1.1223 1.1217 0 0.6194 0.5025 1.1216 1.1223 1.1216zm8.5414 1.244c0.7651 0 1.3854-0.6198 1.3854-1.3845 0-0.7646-0.6203-1.3845-1.3854-1.3845s-1.3854 0.6199-1.3854 1.3845c0 0.7647 0.6203 1.3845 1.3854 1.3845zm9.3105 3.2594c1.23 0 2.2271-0.9965 2.2271-2.2258 0-1.2292-0.9971-2.2257-2.2271-2.2257s-2.2271 0.9965-2.2271 2.2257c0 1.2293 0.9971 2.2258 2.2271 2.2258zm229.76 179.58c0.174 0 0.316-0.142 0.316-0.316s-0.142-0.315-0.316-0.315-0.316 0.141-0.316 0.315 0.142 0.316 0.316 0.316zm-11.066-0.579c0.31 0 0.561-0.251 0.561-0.561 0-0.309-0.251-0.56-0.561-0.56s-0.562 0.251-0.562 0.56c0 0.31 0.252 0.561 0.562 0.561zm-8.47 0.649c0.494 0 0.894-0.4 0.894-0.893 0-0.494-0.4-0.894-0.894-0.894s-0.895 0.4-0.895 0.894c0 0.493 0.401 0.893 0.895 0.893zm-9.399-0.771c0.619 0 1.122-0.502 1.122-1.122 0-0.619-0.503-1.121-1.122-1.121-0.62 0-1.123 0.502-1.123 1.121 0 0.62 0.503 1.122 1.123 1.122zm-8.541-0.719c0.766 0 1.386-0.62 1.386-1.384 0-0.765-0.62-1.385-1.386-1.385-0.765 0-1.385 0.62-1.385 1.385 0 0.764 0.62 1.384 1.385 1.384zm-9.312-1.577c1.23 0 2.228-0.996 2.228-2.226 0-1.229-0.998-2.225-2.228-2.225s-2.227 0.996-2.227 2.225c0 1.23 0.997 2.226 2.227 2.226zm-222.92-192.83c0.1743 0 0.3157-0.1412 0.3157-0.3155 0-0.1742-0.1414-0.3154-0.3157-0.3154s-0.3157 0.1412-0.3157 0.3154c0 0.1743 0.1414 0.3155 0.3157 0.3155zm10.996 1.8584c0.3099 0 0.5612-0.2511 0.5612-0.5608 0-0.3098-0.2513-0.5608-0.5612-0.5608s-0.5612 0.251-0.5612 0.5608c0 0.3097 0.2513 0.5608 0.5612 0.5608zm8.4694 0.5956c0.494 0 0.8944-0.4001 0.8944-0.8938 0-0.4936-0.4004-0.8938-0.8944-0.8938-0.4939 0-0.8943 0.4002-0.8943 0.8938 0 0.4937 0.4004 0.8938 0.8943 0.8938zm9.312 1.8754c0.6198 0 1.1223-0.5022 1.1223-1.1217 0-0.6194-0.5025-1.1216-1.1223-1.1216-0.6199 0-1.1223 0.5022-1.1223 1.1216 0 0.6195 0.5024 1.1217 1.1223 1.1217zm8.4354 1.8573c0.7651 0 1.3854-0.6199 1.3854-1.3845 0-0.7647-0.6203-1.3845-1.3854-1.3845s-1.3854 0.6198-1.3854 1.3845c0 0.7646 0.6203 1.3845 1.3854 1.3845zm9.1181 3.8909c1.23 0 2.2272-0.9965 2.2272-2.2257 0-1.2293-0.9972-2.2257-2.2272-2.2257s-2.2271 0.9964-2.2271 2.2257c0 1.2292 0.9971 2.2257 2.2271 2.2257zm216.54 195.16c0.174 0 0.315-0.142 0.315-0.316s-0.141-0.315-0.315-0.315c-0.175 0-0.316 0.141-0.316 0.315s0.141 0.316 0.316 0.316zm-10.996-1.349c0.309 0 0.561-0.251 0.561-0.561s-0.252-0.561-0.561-0.561c-0.31 0-0.562 0.251-0.562 0.561s0.252 0.561 0.562 0.561zm-8.47 0.052c0.494 0 0.894-0.4 0.894-0.893 0-0.494-0.4-0.894-0.894-0.894s-0.895 0.4-0.895 0.894c0 0.493 0.401 0.893 0.895 0.893zm-9.295-1.419c0.62 0 1.122-0.503 1.122-1.122 0-0.62-0.502-1.122-1.122-1.122s-1.122 0.502-1.122 1.122c0 0.619 0.502 1.122 1.122 1.122zm-8.452-1.315c0.765 0 1.385-0.62 1.385-1.385 0-0.764-0.62-1.384-1.385-1.384s-1.386 0.62-1.386 1.384c0 0.765 0.621 1.385 1.386 1.385zm-9.12-2.225c1.23 0 2.227-0.997 2.227-2.226s-0.997-2.226-2.227-2.226-2.227 0.997-2.227 2.226 0.997 2.226 2.227 2.226zm-209.05-207.89c0.1743 0 0.3156-0.1413 0.3156-0.3155s-0.1413-0.3155-0.3156-0.3155c-0.1744 0-0.3157 0.1413-0.3157 0.3155s0.1413 0.3155 0.3157 0.3155zm10.854 2.6115c0.3099 0 0.5611-0.2511 0.5611-0.5608s-0.2512-0.5608-0.5611-0.5608c-0.31 0-0.5612 0.2511-0.5612 0.5608s0.2512 0.5608 0.5612 0.5608zm8.4347 1.1921c0.494 0 0.8944-0.4002 0.8944-0.8938s-0.4004-0.8938-0.8944-0.8938c-0.4939 0-0.8943 0.4002-0.8943 0.8938s0.4004 0.8938 0.8943 0.8938zm9.1543 2.5235c0.6198 0 1.1223-0.5021 1.1223-1.1216 0-0.6194-0.5025-1.1216-1.1223-1.1216-0.6199 0-1.1224 0.5022-1.1224 1.1216 0 0.6195 0.5025 1.1216 1.1224 1.1216zm8.3128 2.4186c0.7651 0 1.3854-0.6198 1.3854-1.3845 0-0.7646-0.6203-1.3845-1.3854-1.3845s-1.3854 0.6199-1.3854 1.3845c0 0.7647 0.6203 1.3845 1.3854 1.3845zm8.8911 4.5387c1.23 0 2.2271-0.9965 2.2271-2.2258 0-1.2292-0.9971-2.2257-2.2271-2.2257s-2.2271 0.9965-2.2271 2.2257c0 1.2293 0.9971 2.2258 2.2271 2.2258zm202.25 209.78c0.174 0 0.316-0.141 0.316-0.315s-0.142-0.316-0.316-0.316-0.316 0.142-0.316 0.316 0.142 0.315 0.316 0.315zm-10.838-2.12c0.31 0 0.561-0.251 0.561-0.561 0-0.309-0.251-0.561-0.561-0.561s-0.561 0.252-0.561 0.561c0 0.31 0.251 0.561 0.561 0.561zm-8.434-0.526c0.494 0 0.894-0.4 0.894-0.894s-0.4-0.894-0.894-0.894-0.895 0.4-0.895 0.894 0.401 0.894 0.895 0.894zm-9.172-2.068c0.62 0 1.122-0.502 1.122-1.122 0-0.619-0.502-1.122-1.122-1.122s-1.123 0.503-1.123 1.122c0 0.62 0.503 1.122 1.123 1.122zm-8.312-1.893c0.765 0 1.385-0.62 1.385-1.385 0-0.764-0.62-1.384-1.385-1.384-0.766 0-1.386 0.62-1.386 1.384 0 0.765 0.62 1.385 1.386 1.385zm-8.892-2.856c1.23 0 2.227-0.997 2.227-2.226s-0.997-2.226-2.227-2.226-2.227 0.997-2.227 2.226 0.997 2.226 2.227 2.226zm-194.16-221.98c0.1743 0 0.3156-0.1413 0.3156-0.3155s-0.1413-0.3155-0.3156-0.3155c-0.1744 0-0.3157 0.1413-0.3157 0.3155s0.1413 0.3155 0.3157 0.3155zm10.662 3.3649c0.3099 0 0.5612-0.2511 0.5612-0.5608s-0.2513-0.5608-0.5612-0.5608-0.5612 0.2511-0.5612 0.5608 0.2513 0.5608 0.5612 0.5608zm8.3478 1.7873c0.494 0 0.8944-0.4001 0.8944-0.8938 0-0.4936-0.4004-0.8938-0.8944-0.8938-0.4939 0-0.8943 0.4002-0.8943 0.8938 0 0.4937 0.4004 0.8938 0.8943 0.8938zm8.9966 3.1544c0.6198 0 1.1223-0.5021 1.1223-1.1216s-0.5025-1.1216-1.1223-1.1216c-0.6199 0-1.1224 0.5021-1.1224 1.1216s0.5025 1.1216 1.1224 1.1216zm8.137 2.9967c0.7652 0 1.3854-0.6198 1.3854-1.3845 0-0.7646-0.6202-1.3845-1.3854-1.3845-0.7651 0-1.3854 0.6199-1.3854 1.3845 0 0.7647 0.6203 1.3845 1.3854 1.3845zm8.6098 5.1349c1.2301 0 2.2272-0.9965 2.2272-2.2258 0-1.2292-0.9971-2.2257-2.2272-2.2257-1.23 0-2.2271 0.9965-2.2271 2.2257 0 1.2293 0.9971 2.2258 2.2271 2.2258zm186.97 223.36c0.174 0 0.316-0.141 0.316-0.315 0-0.175-0.142-0.316-0.316-0.316s-0.316 0.141-0.316 0.316c0 0.174 0.142 0.315 0.316 0.315zm-10.662-2.874c0.31 0 0.561-0.252 0.561-0.561 0-0.31-0.251-0.561-0.561-0.561s-0.561 0.251-0.561 0.561c0 0.309 0.251 0.561 0.561 0.561zm-8.348-1.104c0.494 0 0.894-0.4 0.894-0.894 0-0.493-0.4-0.894-0.894-0.894s-0.895 0.401-0.895 0.894c0 0.494 0.401 0.894 0.895 0.894zm-8.978-2.699c0.62 0 1.122-0.502 1.122-1.122 0-0.619-0.502-1.121-1.122-1.121s-1.123 0.502-1.123 1.121c0 0.62 0.503 1.122 1.123 1.122zm-8.138-2.471c0.766 0 1.386-0.62 1.386-1.384 0-0.765-0.62-1.385-1.386-1.385-0.765 0-1.385 0.62-1.385 1.385 0 0.764 0.62 1.384 1.385 1.384zm-8.61-3.47c1.23 0 2.227-0.997 2.227-2.226s-0.997-2.226-2.227-2.226-2.228 0.997-2.228 2.226 0.998 2.226 2.228 2.226zm-178.35-234.96c0.1743 0 0.3156-0.1412 0.3156-0.3154 0-0.1743-0.1413-0.3155-0.3156-0.3155-0.1744 0-0.3157 0.1412-0.3157 0.3155 0 0.1742 0.1413 0.3154 0.3157 0.3154zm10.417 4.1013c0.3099 0 0.5611-0.2511 0.5611-0.5608s-0.2512-0.5608-0.5611-0.5608c-0.31 0-0.5612 0.2511-0.5612 0.5608s0.2512 0.5608 0.5612 0.5608zm8.2428 2.3662c0.494 0 0.8944-0.4002 0.8944-0.8938s-0.4004-0.8938-0.8944-0.8938c-0.4939 0-0.8943 0.4002-0.8943 0.8938s0.4004 0.8938 0.8943 0.8938zm8.7495 3.7679c0.6198 0 1.1223-0.5022 1.1223-1.1216 0-0.6195-0.5025-1.1217-1.1223-1.1217-0.6199 0-1.1224 0.5022-1.1224 1.1217 0 0.6194 0.5025 1.1216 1.1224 1.1216zm7.9281 3.5577c0.7651 0 1.3853-0.6198 1.3853-1.3845 0-0.7646-0.6202-1.3845-1.3853-1.3845-0.7652 0-1.3854 0.6199-1.3854 1.3845 0 0.7647 0.6202 1.3845 1.3854 1.3845zm8.2947 5.7303c1.23 0 2.227-0.9965 2.227-2.2257s-0.997-2.2257-2.227-2.2257-2.227 0.9965-2.227 2.2257 0.997 2.2257 2.227 2.2257zm170.8 235.86c0.175 0 0.316-0.141 0.316-0.316 0-0.174-0.141-0.315-0.316-0.315-0.174 0-0.315 0.141-0.315 0.315 0 0.175 0.141 0.316 0.315 0.316zm-10.417-3.61c0.31 0 0.562-0.251 0.562-0.561s-0.252-0.561-0.562-0.561-0.561 0.251-0.561 0.561 0.251 0.561 0.561 0.561zm-8.224-1.701c0.494 0 0.895-0.4 0.895-0.894 0-0.493-0.401-0.893-0.895-0.893-0.493 0-0.894 0.4-0.894 0.893 0 0.494 0.401 0.894 0.894 0.894zm-8.769-3.311c0.62 0 1.122-0.502 1.122-1.122 0-0.619-0.502-1.121-1.122-1.121s-1.122 0.502-1.122 1.121c0 0.62 0.502 1.122 1.122 1.122zm-7.925-3.032c0.765 0 1.385-0.62 1.385-1.385 0-0.764-0.62-1.384-1.385-1.384s-1.385 0.62-1.385 1.384c0 0.765 0.62 1.385 1.385 1.385zm-8.295-4.049c1.23 0 2.228-0.997 2.228-2.226s-0.998-2.226-2.228-2.226-2.227 0.997-2.227 2.226 0.997 2.226 2.227 2.226zm-161.62-246.85c0.1743 0 0.3157-0.1413 0.3157-0.3155s-0.1414-0.3154-0.3157-0.3154-0.3156 0.1412-0.3156 0.3154 0.1413 0.3155 0.3156 0.3155zm10.119 4.82c0.3099 0 0.5611-0.251 0.5611-0.5608 0-0.3097-0.2512-0.5608-0.5611-0.5608-0.31 0-0.5612 0.2511-0.5612 0.5608 0 0.3098 0.2512 0.5608 0.5612 0.5608zm8.0666 2.926c0.4939 0 0.8943-0.4001 0.8943-0.8938 0-0.4936-0.4004-0.8938-0.8943-0.8938-0.494 0-0.8944 0.4002-0.8944 0.8938 0 0.4937 0.4004 0.8938 0.8944 0.8938zm8.4867 4.3812c0.6199 0 1.1223-0.5022 1.1223-1.1216 0-0.6195-0.5024-1.1216-1.1223-1.1216-0.6198 0-1.1223 0.5021-1.1223 1.1216 0 0.6194 0.5025 1.1216 1.1223 1.1216zm7.6812 4.1017c0.765 0 1.386-0.6199 1.386-1.3845s-0.621-1.3845-1.386-1.3845-1.385 0.6199-1.385 1.3845 0.62 1.3845 1.385 1.3845zm7.927 6.3092c1.23 0 2.227-0.9965 2.227-2.2258 0-1.2292-0.997-2.2257-2.227-2.2257s-2.227 0.9965-2.227 2.2257c0 1.2293 0.997 2.2258 2.227 2.2258zm153.8 247.16c0.174 0 0.315-0.141 0.315-0.315s-0.141-0.316-0.315-0.316c-0.175 0-0.316 0.142-0.316 0.316s0.141 0.315 0.316 0.315zm-10.119-4.311c0.31 0 0.561-0.251 0.561-0.561s-0.251-0.561-0.561-0.561-0.561 0.251-0.561 0.561 0.251 0.561 0.561 0.561zm-8.085-2.261c0.494 0 0.894-0.4 0.894-0.893 0-0.494-0.4-0.894-0.894-0.894s-0.895 0.4-0.895 0.894c0 0.493 0.401 0.893 0.895 0.893zm-8.486-3.925c0.62 0 1.122-0.502 1.122-1.122 0-0.619-0.502-1.121-1.122-1.121s-1.123 0.502-1.123 1.121c0 0.62 0.503 1.122 1.123 1.122zm-7.664-3.575c0.765 0 1.385-0.62 1.385-1.385 0-0.764-0.62-1.384-1.385-1.384-0.766 0-1.386 0.62-1.386 1.384 0 0.765 0.62 1.385 1.386 1.385zm-7.944-4.628c1.23 0 2.227-0.996 2.227-2.225 0-1.23-0.997-2.226-2.227-2.226s-2.228 0.996-2.228 2.226c0 1.229 0.998 2.225 2.228 2.225zm-144.13-257.5c0.1744 0 0.3157-0.1412 0.3157-0.3155 0-0.1742-0.1413-0.3154-0.3157-0.3154-0.1743 0-0.3156 0.1412-0.3156 0.3154 0 0.1743 0.1413 0.3155 0.3156 0.3155zm9.7841 5.521c0.31 0 0.5612-0.2511 0.5612-0.5608 0-0.3098-0.2512-0.5609-0.5612-0.5609-0.3099 0-0.5611 0.2511-0.5611 0.5609 0 0.3097 0.2512 0.5608 0.5611 0.5608zm7.8586 3.4697c0.4939 0 0.8944-0.4002 0.8944-0.8938 0-0.4937-0.4005-0.8938-0.8944-0.8938s-0.8944 0.4001-0.8944 0.8938c0 0.4936 0.4005 0.8938 0.8944 0.8938zm8.1879 4.9598c0.62 0 1.122-0.5022 1.122-1.1217 0-0.6194-0.502-1.1216-1.122-1.1216s-1.122 0.5022-1.122 1.1216c0 0.6195 0.502 1.1217 1.122 1.1217zm7.384 4.6266c0.765 0 1.385-0.6199 1.385-1.3845 0-0.7647-0.62-1.3846-1.385-1.3846s-1.386 0.6199-1.386 1.3846c0 0.7646 0.621 1.3845 1.386 1.3845zm7.523 6.8523c1.23 0 2.227-0.9965 2.227-2.2257s-0.997-2.2257-2.227-2.2257-2.228 0.9965-2.228 2.2257 0.998 2.2257 2.228 2.2257zm136.03 257.29c0.174 0 0.316-0.141 0.316-0.316 0-0.174-0.142-0.315-0.316-0.315s-0.316 0.141-0.316 0.315c0 0.175 0.142 0.316 0.316 0.316zm-9.769-5.03c0.31 0 0.562-0.251 0.562-0.561 0-0.309-0.252-0.561-0.562-0.561s-0.561 0.252-0.561 0.561c0 0.31 0.251 0.561 0.561 0.561zm-7.873-2.822c0.494 0 0.895-0.4 0.895-0.894 0-0.493-0.401-0.893-0.895-0.893s-0.894 0.4-0.894 0.893c0 0.494 0.4 0.894 0.894 0.894zm-8.172-4.486c0.619 0 1.122-0.502 1.122-1.122 0-0.619-0.503-1.122-1.122-1.122-0.62 0-1.123 0.503-1.123 1.122 0 0.62 0.503 1.122 1.123 1.122zm-7.401-4.118c0.766 0 1.386-0.62 1.386-1.385 0-0.764-0.62-1.384-1.386-1.384-0.765 0-1.385 0.62-1.385 1.384 0 0.765 0.62 1.385 1.385 1.385zm-7.522-5.153c1.23 0 2.227-0.996 2.227-2.226 0-1.229-0.997-2.225-2.227-2.225s-2.228 0.996-2.228 2.225c0 1.23 0.998 2.226 2.228 2.226zm-125.95-266.93c0.1743 0 0.3156-0.1413 0.3156-0.3155s-0.1413-0.3154-0.3156-0.3154c-0.1744 0-0.3157 0.1412-0.3157 0.3154s0.1413 0.3155 0.3157 0.3155zm9.3816 6.1865c0.3099 0 0.5611-0.2511 0.5611-0.5608 0-0.3098-0.2512-0.5608-0.5611-0.5608s-0.5612 0.251-0.5612 0.5608c0 0.3097 0.2513 0.5608 0.5612 0.5608zm7.6293 4.0131c0.494 0 0.895-0.4001 0.895-0.8938 0-0.4936-0.401-0.8938-0.895-0.8938s-0.894 0.4002-0.894 0.8938c0 0.4937 0.4 0.8938 0.894 0.8938zm7.838 5.5206c0.62 0 1.122-0.5021 1.122-1.1216s-0.502-1.1216-1.122-1.1216-1.122 0.5021-1.122 1.1216 0.502 1.1216 1.122 1.1216zm7.067 5.1352c0.765 0 1.385-0.6199 1.385-1.3845 0-0.7647-0.62-1.3846-1.385-1.3846s-1.386 0.6199-1.386 1.3846c0 0.7646 0.621 1.3845 1.386 1.3845zm7.085 7.3604c1.23 0 2.227-0.9965 2.227-2.2257 0-1.2293-0.997-2.2258-2.227-2.2258s-2.227 0.9965-2.227 2.2258c0 1.2292 0.997 2.2257 2.227 2.2257zm117.6 266.14c0.174 0 0.316-0.141 0.316-0.316 0-0.174-0.142-0.315-0.316-0.315s-0.316 0.141-0.316 0.315c0 0.175 0.142 0.316 0.316 0.316zm-9.381-5.695c0.31 0 0.561-0.251 0.561-0.561s-0.251-0.561-0.561-0.561-0.562 0.251-0.562 0.561 0.252 0.561 0.562 0.561zm-7.629-3.365c0.494 0 0.894-0.4 0.894-0.894 0-0.493-0.4-0.894-0.894-0.894s-0.894 0.401-0.894 0.894c0 0.494 0.4 0.894 0.894 0.894zm-7.822-5.048c0.62 0 1.122-0.502 1.122-1.121 0-0.62-0.502-1.122-1.122-1.122s-1.122 0.502-1.122 1.122c0 0.619 0.502 1.121 1.122 1.121zm-7.066-4.609c0.765 0 1.385-0.62 1.385-1.384 0-0.765-0.62-1.385-1.385-1.385s-1.385 0.62-1.385 1.385c0 0.764 0.62 1.384 1.385 1.384zm-7.102-5.678c1.23 0 2.227-0.997 2.227-2.226s-0.997-2.226-2.227-2.226-2.227 0.997-2.227 2.226 0.997 2.226 2.227 2.226zm-107.13-275.06c0.1743 0 0.3156-0.1413 0.3156-0.3155s-0.1413-0.3155-0.3156-0.3155c-0.1744 0-0.3157 0.1413-0.3157 0.3155s0.1413 0.3155 0.3157 0.3155zm8.9443 6.8166c0.31 0 0.561-0.2511 0.561-0.5608s-0.251-0.5608-0.561-0.5608-0.561 0.2511-0.561 0.5608 0.251 0.5608 0.561 0.5608zm7.347 4.5573c0.494 0 0.895-0.4001 0.895-0.8938 0-0.4936-0.401-0.8938-0.895-0.8938s-0.894 0.4002-0.894 0.8938c0 0.4937 0.4 0.8938 0.894 0.8938zm7.435 6.0463c0.62 0 1.123-0.5022 1.123-1.1217 0-0.6194-0.503-1.1216-1.123-1.1216s-1.122 0.5022-1.122 1.1216c0 0.6195 0.502 1.1217 1.122 1.1217zm6.717 5.6083c0.765 0 1.385-0.6199 1.385-1.3846 0-0.7646-0.62-1.3845-1.385-1.3845s-1.385 0.6199-1.385 1.3845c0 0.7647 0.62 1.3846 1.385 1.3846zm6.629 7.8333c1.23 0 2.227-0.9965 2.227-2.2258 0-1.2292-0.997-2.2257-2.227-2.2257s-2.227 0.9965-2.227 2.2257c0 1.2293 0.997 2.2258 2.227 2.2258zm98.607 273.7c0.174 0 0.316-0.142 0.316-0.316s-0.142-0.315-0.316-0.315-0.316 0.141-0.316 0.315 0.142 0.316 0.316 0.316zm-8.961-6.345c0.31 0 0.562-0.252 0.562-0.561 0-0.31-0.252-0.561-0.562-0.561s-0.561 0.251-0.561 0.561c0 0.309 0.251 0.561 0.561 0.561zm-7.348-3.874c0.494 0 0.894-0.4 0.894-0.893 0-0.494-0.4-0.894-0.894-0.894s-0.894 0.4-0.894 0.894c0 0.493 0.4 0.893 0.894 0.893zm-7.435-5.59c0.62 0 1.122-0.502 1.122-1.122 0-0.619-0.502-1.121-1.122-1.121s-1.123 0.502-1.123 1.121c0 0.62 0.503 1.122 1.123 1.122zm-6.716-5.082c0.765 0 1.386-0.62 1.386-1.384 0-0.765-0.621-1.385-1.386-1.385s-1.385 0.62-1.385 1.385c0 0.764 0.62 1.384 1.385 1.384zm-6.611-6.151c1.23 0 2.227-0.997 2.227-2.226s-0.997-2.226-2.227-2.226-2.227 0.997-2.227 2.226 0.997 2.226 2.227 2.226zm-87.823-281.88c0.174 0 0.315-0.1412 0.315-0.3155 0-0.1742-0.141-0.3154-0.315-0.3154s-0.316 0.1412-0.316 0.3154c0 0.1743 0.142 0.3155 0.316 0.3155zm8.471 7.4309c0.31 0 0.561-0.2511 0.561-0.5608s-0.251-0.5608-0.561-0.5608-0.561 0.2511-0.561 0.5608 0.251 0.5608 0.561 0.5608zm7.049 5.0471c0.494 0 0.895-0.4002 0.895-0.8938 0-0.4937-0.401-0.8938-0.895-0.8938s-0.894 0.4001-0.894 0.8938c0 0.4936 0.4 0.8938 0.894 0.8938zm7.014 6.5543c0.62 0 1.122-0.5022 1.122-1.1217 0-0.6194-0.502-1.1216-1.122-1.1216s-1.122 0.5022-1.122 1.1216c0 0.6195 0.502 1.1217 1.122 1.1217zm6.312 6.0814c0.765 0 1.385-0.6199 1.385-1.3845 0-0.7647-0.62-1.3845-1.385-1.3845s-1.385 0.6198-1.385 1.3845c0 0.7646 0.62 1.3845 1.385 1.3845zm6.122 8.2725c1.23 0 2.228-0.9965 2.228-2.2257s-0.998-2.2257-2.228-2.2257-2.227 0.9965-2.227 2.2257 0.997 2.2257 2.227 2.2257zm79.123 279.88c0.174 0 0.316-0.142 0.316-0.316s-0.142-0.315-0.316-0.315-0.316 0.141-0.316 0.315 0.142 0.316 0.316 0.316zm-8.47-6.94c0.31 0 0.561-0.252 0.561-0.561 0-0.31-0.251-0.561-0.561-0.561s-0.561 0.251-0.561 0.561c0 0.309 0.251 0.561 0.561 0.561zm-7.031-4.382c0.494 0 0.894-0.401 0.894-0.894 0-0.494-0.4-0.894-0.894-0.894s-0.895 0.4-0.895 0.894c0 0.493 0.401 0.894 0.895 0.894zm-7.015-6.082c0.62 0 1.122-0.502 1.122-1.121 0-0.62-0.502-1.122-1.122-1.122s-1.122 0.502-1.122 1.122c0 0.619 0.502 1.121 1.122 1.121zm-6.331-5.555c0.766 0 1.386-0.619 1.386-1.384s-0.62-1.385-1.386-1.385c-0.765 0-1.385 0.62-1.385 1.385s0.62 1.384 1.385 1.384zm-6.12-6.59c1.23 0 2.227-0.996 2.227-2.226 0-1.229-0.997-2.225-2.227-2.225s-2.227 0.996-2.227 2.225c0 1.23 0.997 2.226 2.227 2.226zm-68.059-287.31c0.174 0 0.315-0.14124 0.315-0.31546 0-0.17423-0.141-0.31546-0.315-0.31546-0.175 0-0.316 0.14123-0.316 0.31546 0 0.17422 0.141 0.31546 0.316 0.31546zm7.963 8.0091c0.31 0 0.561-0.2511 0.561-0.5609 0-0.3097-0.251-0.5608-0.561-0.5608s-0.562 0.2511-0.562 0.5608c0 0.3098 0.252 0.5609 0.562 0.5609zm6.68 5.5209c0.494 0 0.894-0.4002 0.894-0.8938s-0.4-0.8938-0.894-0.8938-0.894 0.4002-0.894 0.8938 0.4 0.8938 0.894 0.8938zm6.559 7.0272c0.62 0 1.122-0.5022 1.122-1.1216 0-0.6195-0.502-1.1217-1.122-1.1217s-1.122 0.5022-1.122 1.1217c0 0.6194 0.502 1.1216 1.122 1.1216zm5.909 6.5021c0.765 0 1.385-0.6199 1.385-1.3845 0-0.7647-0.62-1.3845-1.385-1.3845s-1.385 0.6198-1.385 1.3845c0 0.7646 0.62 1.3845 1.385 1.3845zm5.578 8.6756c1.23 0 2.227-0.9965 2.227-2.2257 0-1.2293-0.997-2.2258-2.227-2.2258s-2.227 0.9965-2.227 2.2258c0 1.2292 0.997 2.2257 2.227 2.2257zm59.272 284.72c0.174 0 0.315-0.142 0.315-0.316s-0.141-0.315-0.315-0.315c-0.175 0-0.316 0.141-0.316 0.315s0.141 0.316 0.316 0.316zm-7.943-7.501c0.31 0 0.561-0.251 0.561-0.561s-0.251-0.561-0.561-0.561-0.562 0.251-0.562 0.561 0.252 0.561 0.562 0.561zm-6.699-4.872c0.494 0 0.894-0.4 0.894-0.893 0-0.494-0.4-0.894-0.894-0.894s-0.895 0.4-0.895 0.894c0 0.493 0.401 0.893 0.895 0.893zm-6.56-6.554c0.62 0 1.122-0.502 1.122-1.122 0-0.619-0.502-1.121-1.122-1.121s-1.122 0.502-1.122 1.121c0 0.62 0.502 1.122 1.122 1.122zm-5.892-5.977c0.765 0 1.386-0.619 1.386-1.384s-0.621-1.385-1.386-1.385-1.385 0.62-1.385 1.385 0.62 1.384 1.385 1.384zm-5.593-7.01c1.23 0 2.227-0.996 2.227-2.226 0-1.229-0.997-2.225-2.227-2.225s-2.228 0.996-2.228 2.225c0 1.23 0.998 2.226 2.228 2.226zm-47.963-291.34c0.175 0 0.316-0.14124 0.316-0.31546s-0.141-0.31546-0.316-0.31546c-0.174 0-0.315 0.14124-0.315 0.31546s0.141 0.31546 0.315 0.31546zm7.384 8.5357c0.31 0 0.562-0.2511 0.562-0.5608 0-0.3098-0.252-0.5609-0.562-0.5609-0.309 0-0.561 0.2511-0.561 0.5609 0 0.3097 0.252 0.5608 0.561 0.5608zm6.312 5.976c0.494 0 0.894-0.4002 0.894-0.8938s-0.4-0.8938-0.894-0.8938-0.894 0.4002-0.894 0.8938 0.4 0.8938 0.894 0.8938zm6.068 7.4652c0.62 0 1.123-0.5022 1.123-1.1216 0-0.6195-0.503-1.1217-1.123-1.1217-0.619 0-1.122 0.5022-1.122 1.1217 0 0.6194 0.503 1.1216 1.122 1.1216zm5.453 6.8878c0.765 0 1.385-0.6199 1.385-1.3845 0-0.7647-0.62-1.3845-1.385-1.3845-0.766 0-1.386 0.6198-1.386 1.3845 0 0.7646 0.62 1.3845 1.386 1.3845zm5.017 9.0611c1.23 0 2.227-0.9965 2.227-2.2257 0-1.2293-0.997-2.2258-2.227-2.2258s-2.228 0.9965-2.228 2.2258c0 1.2292 0.998 2.2257 2.228 2.2257zm39.124 288.15c0.174 0 0.315-0.141 0.315-0.315s-0.141-0.315-0.315-0.315c-0.175 0-0.316 0.141-0.316 0.315s0.141 0.315 0.316 0.315zm-7.384-8.043c0.31 0 0.561-0.251 0.561-0.561s-0.251-0.561-0.561-0.561-0.561 0.251-0.561 0.561 0.251 0.561 0.561 0.561zm-6.331-5.311c0.494 0 0.895-0.4 0.895-0.894 0-0.493-0.401-0.893-0.895-0.893-0.493 0-0.894 0.4-0.894 0.893 0 0.494 0.401 0.894 0.894 0.894zm-6.066-7.009c0.619 0 1.122-0.503 1.122-1.122 0-0.62-0.503-1.122-1.122-1.122-0.62 0-1.123 0.502-1.123 1.122 0 0.619 0.503 1.122 1.123 1.122zm-5.438-6.38c0.765 0 1.386-0.62 1.386-1.384 0-0.765-0.621-1.385-1.386-1.385s-1.385 0.62-1.385 1.385c0 0.764 0.62 1.384 1.385 1.384zm-5.032-7.36c1.23 0 2.227-0.997 2.227-2.226s-0.997-2.226-2.227-2.226-2.227 0.997-2.227 2.226 0.997 2.226 2.227 2.226zm-27.655-294.01c0.175 0 0.316-0.14123 0.316-0.31546 0-0.17422-0.141-0.31546-0.316-0.31546-0.174 0-0.315 0.14124-0.315 0.31546 0 0.17423 0.141 0.31546 0.315 0.31546zm6.786 9.0427c0.309 0 0.561-0.251 0.561-0.5608 0-0.3097-0.252-0.5608-0.561-0.5608-0.31 0-0.562 0.2511-0.562 0.5608 0 0.3098 0.252 0.5608 0.562 0.5608zm5.91 6.3977c0.494 0 0.895-0.4002 0.895-0.8938s-0.401-0.8938-0.895-0.8938-0.894 0.4002-0.894 0.8938 0.4 0.8938 0.894 0.8938zm5.559 7.8687c0.62 0 1.123-0.5021 1.123-1.1216 0-0.6194-0.503-1.1216-1.123-1.1216-0.619 0-1.122 0.5022-1.122 1.1216 0 0.6195 0.503 1.1216 1.122 1.1216zm4.962 7.2726c0.765 0 1.386-0.6198 1.386-1.3845 0-0.7646-0.621-1.3845-1.386-1.3845s-1.385 0.6199-1.385 1.3845c0 0.7647 0.62 1.3845 1.385 1.3845zm4.438 9.3768c1.23 0 2.227-0.9965 2.227-2.2257 0-1.2293-0.997-2.2258-2.227-2.2258s-2.227 0.9965-2.227 2.2258c0 1.2292 0.997 2.2257 2.227 2.2257zm3.823 9.4634c1.54 0 2.788-1.2475 2.788-2.7865s-1.248-2.7866-2.788-2.7866-2.788 1.2476-2.788 2.7866 1.248 2.7865 2.788 2.7865zm-16.537 236.19c1.54 0 2.788-1.247 2.788-2.786s-1.248-2.787-2.788-2.787-2.788 1.248-2.788 2.787 1.248 2.786 2.788 2.786zm31.495 44.515c0.174 0 0.316-0.142 0.316-0.316s-0.142-0.315-0.316-0.315-0.316 0.141-0.316 0.315 0.142 0.316 0.316 0.316zm-6.787-8.535c0.31 0 0.561-0.251 0.561-0.561 0-0.309-0.251-0.56-0.561-0.56s-0.561 0.251-0.561 0.56c0 0.31 0.251 0.561 0.561 0.561zm-5.91-5.748c0.494 0 0.895-0.4 0.895-0.894 0-0.493-0.401-0.893-0.895-0.893s-0.894 0.4-0.894 0.893c0 0.494 0.4 0.894 0.894 0.894zm-5.54-7.413c0.62 0 1.122-0.502 1.122-1.122 0-0.619-0.502-1.121-1.122-1.121s-1.123 0.502-1.123 1.121c0 0.62 0.503 1.122 1.123 1.122zm-4.982-6.73c0.765 0 1.386-0.62 1.386-1.385 0-0.764-0.621-1.384-1.386-1.384s-1.385 0.62-1.385 1.384c0 0.765 0.62 1.385 1.385 1.385zm-4.435-7.693c1.23 0 2.227-0.997 2.227-2.226s-0.997-2.226-2.227-2.226-2.228 0.997-2.228 2.226 0.998 2.226 2.228 2.226zm-7.191-295.22c0.175 0 0.316-0.14124 0.316-0.31546s-0.141-0.31546-0.316-0.31546c-0.174 0-0.315 0.14124-0.315 0.31546s0.141 0.31546 0.315 0.31546zm6.156 9.4816c0.31 0 0.561-0.2511 0.561-0.56079 0-0.30973-0.251-0.56081-0.561-0.56081s-0.561 0.25108-0.561 0.56081c0 0.30969 0.251 0.56079 0.561 0.56079zm5.472 6.7995c0.494 0 0.894-0.4001 0.894-0.8938 0-0.4936-0.4-0.8938-0.894-0.8938s-0.895 0.4002-0.895 0.8938c0 0.4937 0.401 0.8938 0.895 0.8938zm4.996 8.2374c0.62 0 1.123-0.5021 1.123-1.1216 0-0.6194-0.503-1.1216-1.123-1.1216s-1.122 0.5022-1.122 1.1216c0 0.6195 0.502 1.1216 1.122 1.1216zm4.472 7.5883c0.765 0 1.386-0.6199 1.386-1.3845 0-0.7647-0.621-1.3845-1.386-1.3845s-1.385 0.6198-1.385 1.3845c0 0.7646 0.62 1.3845 1.385 1.3845zm3.824 9.6744c1.23 0 2.227-0.9965 2.227-2.2257 0-1.2293-0.997-2.2258-2.227-2.2258s-2.228 0.9965-2.228 2.2258c0 1.2292 0.998 2.2257 2.228 2.2257zm3.191 9.7088c1.54 0 2.788-1.2476 2.788-2.7866 0-1.5389-1.248-2.7865-2.788-2.7865s-2.788 1.2476-2.788 2.7865c0 1.539 1.248 2.7866 2.788 2.7866zm-32.985 234.47c1.54 0 2.788-1.247 2.788-2.786s-1.248-2.787-2.788-2.787-2.789 1.248-2.789 2.787 1.249 2.786 2.789 2.786zm28.146 46.601c0.175 0 0.316-0.141 0.316-0.316 0-0.174-0.141-0.315-0.316-0.315-0.174 0-0.315 0.141-0.315 0.315 0 0.175 0.141 0.316 0.315 0.316zm-6.155-8.99c0.31 0 0.561-0.251 0.561-0.561s-0.251-0.561-0.561-0.561-0.561 0.251-0.561 0.561 0.251 0.561 0.561 0.561zm-5.473-6.152c0.494 0 0.894-0.4 0.894-0.894s-0.4-0.894-0.894-0.894-0.894 0.4-0.894 0.894 0.4 0.894 0.894 0.894zm-4.997-7.781c0.62 0 1.122-0.502 1.122-1.122 0-0.619-0.502-1.121-1.122-1.121s-1.123 0.502-1.123 1.121c0 0.62 0.503 1.122 1.123 1.122zm-4.49-7.063c0.766 0 1.386-0.62 1.386-1.384 0-0.765-0.62-1.385-1.386-1.385-0.765 0-1.385 0.62-1.385 1.385 0 0.764 0.62 1.384 1.385 1.384zm-3.822-7.992c1.23 0 2.227-0.996 2.227-2.226 0-1.229-0.997-2.225-2.227-2.225s-2.227 0.996-2.227 2.225c0 1.23 0.997 2.226 2.227 2.226zm13.291-294.99c0.175 0 0.316-0.14124 0.316-0.31546s-0.141-0.31546-0.316-0.31546c-0.174 0-0.315 0.14124-0.315 0.31546s0.141 0.31546 0.315 0.31546zm5.507 9.8845c0.31 0 0.561-0.2511 0.561-0.56079 0-0.30973-0.251-0.56081-0.561-0.56081s-0.561 0.25108-0.561 0.56081c0 0.30969 0.251 0.56079 0.561 0.56079zm4.999 7.1682c0.494 0 0.895-0.4002 0.895-0.8938s-0.401-0.8938-0.895-0.8938-0.894 0.4002-0.894 0.8938 0.4 0.8938 0.894 0.8938zm4.435 8.5692c0.62 0 1.123-0.5022 1.123-1.1216 0-0.6195-0.503-1.1217-1.123-1.1217s-1.122 0.5022-1.122 1.1217c0 0.6194 0.502 1.1216 1.122 1.1216zm3.946 7.8866c0.765 0 1.386-0.6199 1.386-1.3845 0-0.7647-0.621-1.3845-1.386-1.3845s-1.385 0.6198-1.385 1.3845c0 0.7646 0.62 1.3845 1.385 1.3845zm3.192 9.9197c1.23 0 2.227-0.9965 2.227-2.2257s-0.997-2.2257-2.227-2.2257-2.227 0.9965-2.227 2.2257 0.997 2.2257 2.227 2.2257zm2.542 9.9014c1.54 0 2.789-1.2475 2.789-2.7865s-1.249-2.7865-2.789-2.7865-2.788 1.2475-2.788 2.7865 1.248 2.7865 2.788 2.7865zm-49.258 231.6c1.54 0 2.788-1.248 2.788-2.787s-1.248-2.786-2.788-2.786-2.788 1.247-2.788 2.786 1.248 2.787 2.788 2.787zm24.637 48.44c0.175 0 0.316-0.141 0.316-0.316 0-0.174-0.141-0.315-0.316-0.315-0.174 0-0.315 0.141-0.315 0.315 0 0.175 0.141 0.316 0.315 0.316zm-5.487-9.393c0.31 0 0.561-0.251 0.561-0.561s-0.251-0.561-0.561-0.561-0.561 0.251-0.561 0.561 0.251 0.561 0.561 0.561zm-5.017-6.52c0.494 0 0.894-0.4 0.894-0.894 0-0.493-0.4-0.893-0.894-0.893s-0.894 0.4-0.894 0.893c0 0.494 0.4 0.894 0.894 0.894zm-4.419-8.096c0.62 0 1.122-0.503 1.122-1.122 0-0.62-0.502-1.122-1.122-1.122s-1.122 0.502-1.122 1.122c0 0.619 0.502 1.122 1.122 1.122zm-3.946-7.362c0.765 0 1.385-0.619 1.385-1.384s-0.62-1.385-1.385-1.385-1.385 0.62-1.385 1.385 0.62 1.384 1.385 1.384zm-3.208-8.237c1.23 0 2.228-0.996 2.228-2.226 0-1.229-0.998-2.225-2.228-2.225s-2.227 0.996-2.227 2.225c0 1.23 0.997 2.226 2.227 2.226zm33.704-293.36c0.174 0 0.315-0.14124 0.315-0.31546s-0.141-0.31546-0.315-0.31546c-0.175 0-0.316 0.14124-0.316 0.31546s0.141 0.31546 0.316 0.31546zm4.823 10.252c0.31 0 0.561-0.251 0.561-0.5608 0-0.3097-0.251-0.5608-0.561-0.5608s-0.561 0.2511-0.561 0.5608c0 0.3098 0.251 0.5608 0.561 0.5608zm4.507 7.5017c0.494 0 0.894-0.4002 0.894-0.8938s-0.4-0.8938-0.894-0.8938-0.894 0.4002-0.894 0.8938 0.4 0.8938 0.894 0.8938zm3.84 8.8497c0.62 0 1.122-0.5022 1.122-1.1216 0-0.6195-0.502-1.1217-1.122-1.1217s-1.123 0.5022-1.123 1.1217c0 0.6194 0.503 1.1216 1.123 1.1216zm3.42 8.1493c0.766 0 1.386-0.6199 1.386-1.3845 0-0.7647-0.62-1.3845-1.386-1.3845-0.765 0-1.385 0.6198-1.385 1.3845 0 0.7646 0.62 1.3845 1.385 1.3845zm2.561 10.112c1.23 0 2.227-0.9965 2.227-2.2258 0-1.2292-0.997-2.2257-2.227-2.2257s-2.227 0.9965-2.227 2.2257c0 1.2293 0.997 2.2258 2.227 2.2258zm1.876 10.059c1.54 0 2.788-1.2475 2.788-2.7865s-1.248-2.7865-2.788-2.7865-2.789 1.2475-2.789 2.7865 1.249 2.7865 2.789 2.7865zm-65.307 227.6c1.54 0 2.789-1.247 2.789-2.786s-1.249-2.787-2.789-2.787-2.788 1.248-2.788 2.787 1.248 2.786 2.788 2.786zm21.027 50.036c0.175 0 0.316-0.141 0.316-0.316 0-0.174-0.141-0.315-0.316-0.315-0.174 0-0.315 0.141-0.315 0.315 0 0.175 0.141 0.316 0.315 0.316zm-4.822-9.762c0.31 0 0.562-0.251 0.562-0.561 0-0.309-0.252-0.56-0.562-0.56s-0.561 0.251-0.561 0.56c0 0.31 0.251 0.561 0.561 0.561zm-4.507-6.835c0.494 0 0.895-0.4 0.895-0.894 0-0.493-0.401-0.893-0.895-0.893s-0.894 0.4-0.894 0.893c0 0.494 0.4 0.894 0.894 0.894zm-3.841-8.394c0.62 0 1.122-0.502 1.122-1.122 0-0.619-0.502-1.121-1.122-1.121s-1.122 0.502-1.122 1.121c0 0.62 0.502 1.122 1.122 1.122zm-3.403-7.624c0.765 0 1.385-0.619 1.385-1.384s-0.62-1.385-1.385-1.385-1.385 0.62-1.385 1.385 0.62 1.384 1.385 1.384zm-2.559-8.429c1.23 0 2.227-0.997 2.227-2.226s-0.997-2.226-2.227-2.226-2.227 0.997-2.227 2.226 0.997 2.226 2.227 2.226zm53.977-290.31c0.174 0 0.316-0.14123 0.316-0.31546 0-0.17422-0.142-0.31546-0.316-0.31546s-0.316 0.14124-0.316 0.31546c0 0.17423 0.142 0.31546 0.316 0.31546zm4.104 10.568c0.31 0 0.561-0.2511 0.561-0.5608 0-0.3098-0.251-0.5609-0.561-0.5609s-0.561 0.2511-0.561 0.5609c0 0.3097 0.251 0.5608 0.561 0.5608zm3.998 7.7985c0.494 0 0.894-0.4002 0.894-0.8938s-0.4-0.8938-0.894-0.8938-0.895 0.4002-0.895 0.8938 0.401 0.8938 0.895 0.8938zm3.227 9.1131c0.62 0 1.122-0.5021 1.122-1.1216s-0.502-1.1216-1.122-1.1216-1.123 0.5021-1.123 1.1216 0.503 1.1216 1.123 1.1216zm2.841 8.3425c0.765 0 1.386-0.6199 1.386-1.3846 0-0.7646-0.621-1.3845-1.386-1.3845s-1.385 0.6199-1.385 1.3845c0 0.7647 0.62 1.3846 1.385 1.3846zm1.912 10.287c1.23 0 2.227-0.9965 2.227-2.2257 0-1.2293-0.997-2.2258-2.227-2.2258s-2.227 0.9965-2.227 2.2258c0 1.2292 0.997 2.2257 2.227 2.2257zm1.208 10.165c1.54 0 2.789-1.2476 2.789-2.7866 0-1.5389-1.249-2.7865-2.789-2.7865s-2.788 1.2476-2.788 2.7865c0 1.539 1.248 2.7866 2.788 2.7866zm-81.017 222.49c1.54 0 2.788-1.248 2.788-2.787 0-1.538-1.248-2.786-2.788-2.786s-2.788 1.248-2.788 2.786c0 1.539 1.248 2.787 2.788 2.787zm17.308 51.385c0.174 0 0.315-0.142 0.315-0.316s-0.141-0.315-0.315-0.315c-0.175 0-0.316 0.141-0.316 0.315s0.141 0.316 0.316 0.316zm-4.103-10.077c0.31 0 0.562-0.251 0.562-0.561s-0.252-0.561-0.562-0.561-0.561 0.251-0.561 0.561 0.251 0.561 0.561 0.561zm-4.016-7.133c0.494 0 0.894-0.401 0.894-0.894 0-0.494-0.4-0.894-0.894-0.894s-0.894 0.4-0.894 0.894c0 0.493 0.4 0.894 0.894 0.894zm-3.209-8.658c0.62 0 1.123-0.502 1.123-1.122 0-0.619-0.503-1.121-1.123-1.121-0.619 0-1.122 0.502-1.122 1.121 0 0.62 0.503 1.122 1.122 1.122zm-2.859-7.816c0.765 0 1.385-0.62 1.385-1.384 0-0.765-0.62-1.385-1.385-1.385s-1.385 0.62-1.385 1.385c0 0.764 0.62 1.384 1.385 1.384zm-1.911-8.605c1.23 0 2.227-0.997 2.227-2.226s-0.997-2.226-2.227-2.226-2.227 0.997-2.227 2.226 0.997 2.226 2.227 2.226zm73.969-285.82c0.174 0 0.315-0.14124 0.315-0.31546s-0.141-0.31546-0.315-0.31546c-0.175 0-0.316 0.14124-0.316 0.31546s0.141 0.31546 0.316 0.31546zm3.384 10.813c0.31 0 0.561-0.2511 0.561-0.5609 0-0.3097-0.251-0.5608-0.561-0.5608s-0.561 0.2511-0.561 0.5608c0 0.3098 0.251 0.5609 0.561 0.5609zm3.473 8.0617c0.494 0 0.895-0.4002 0.895-0.8938 0-0.4937-0.401-0.8938-0.895-0.8938s-0.894 0.4001-0.894 0.8938c0 0.4936 0.4 0.8938 0.894 0.8938zm2.594 9.3065c0.62 0 1.123-0.5022 1.123-1.1217 0-0.6194-0.503-1.1216-1.123-1.1216-0.619 0-1.122 0.5022-1.122 1.1216 0 0.6195 0.503 1.1217 1.122 1.1217zm2.281 8.5348c0.765 0 1.385-0.6199 1.385-1.3845 0-0.7647-0.62-1.3846-1.385-1.3846s-1.385 0.6199-1.385 1.3846c0 0.7646 0.62 1.3845 1.385 1.3845zm1.245 10.392c1.23 0 2.227-0.9965 2.227-2.2257s-0.997-2.2257-2.227-2.2257-2.228 0.9965-2.228 2.2257 0.998 2.2257 2.228 2.2257zm0.525 10.235c1.54 0 2.788-1.2475 2.788-2.7865s-1.248-2.7866-2.788-2.7866-2.789 1.2476-2.789 2.7866 1.249 2.7865 2.789 2.7865zm-96.345 216.28c1.54 0 2.789-1.247 2.789-2.786s-1.249-2.787-2.789-2.787c-1.539 0-2.788 1.248-2.788 2.787s1.249 2.786 2.788 2.786zm13.503 52.453c0.175 0 0.316-0.141 0.316-0.315s-0.141-0.315-0.316-0.315c-0.174 0-0.315 0.141-0.315 0.315s0.141 0.315 0.315 0.315zm-3.366-10.322c0.31 0 0.561-0.251 0.561-0.561s-0.251-0.561-0.561-0.561-0.562 0.251-0.562 0.561 0.252 0.561 0.562 0.561zm-3.472-7.395c0.494 0 0.894-0.4 0.894-0.894s-0.4-0.894-0.894-0.894-0.894 0.4-0.894 0.894 0.4 0.894 0.894 0.894zm-2.615-8.851c0.62 0 1.123-0.502 1.123-1.122 0-0.619-0.503-1.121-1.123-1.121s-1.122 0.502-1.122 1.121c0 0.62 0.502 1.122 1.122 1.122zm-2.279-8.009c0.765 0 1.385-0.62 1.385-1.384 0-0.765-0.62-1.385-1.385-1.385s-1.386 0.62-1.386 1.385c0 0.764 0.621 1.384 1.386 1.384zm-1.244-8.71c1.23 0 2.227-0.996 2.227-2.226 0-1.229-0.997-2.225-2.227-2.225s-2.228 0.996-2.228 2.225c0 1.23 0.998 2.226 2.228 2.226zm93.626-279.99c0.174 0 0.315-0.14124 0.315-0.31546 0-0.17423-0.141-0.31546-0.315-0.31546-0.175 0-0.316 0.14123-0.316 0.31546 0 0.17422 0.141 0.31546 0.316 0.31546zm2.613 11.041c0.31 0 0.562-0.2511 0.562-0.5608s-0.252-0.5608-0.562-0.5608-0.561 0.2511-0.561 0.5608 0.251 0.5608 0.561 0.5608zm2.93 8.2715c0.494 0 0.894-0.4002 0.894-0.8938 0-0.4937-0.4-0.8938-0.894-0.8938s-0.895 0.4001-0.895 0.8938c0 0.4936 0.401 0.8938 0.895 0.8938zm1.963 9.4639c0.62 0 1.122-0.5021 1.122-1.1216s-0.502-1.1216-1.122-1.1216-1.122 0.5021-1.122 1.1216 0.502 1.1216 1.122 1.1216zm1.683 8.693c0.766 0 1.386-0.6198 1.386-1.3845 0-0.7646-0.62-1.3845-1.386-1.3845-0.765 0-1.385 0.6199-1.385 1.3845 0 0.7647 0.62 1.3845 1.385 1.3845zm0.58 10.445c1.23 0 2.227-0.9965 2.227-2.2258 0-1.2292-0.997-2.2257-2.227-2.2257s-2.228 0.9965-2.228 2.2257c0 1.2293 0.998 2.2258 2.228 2.2258zm-0.14 10.235c1.54 0 2.788-1.2476 2.788-2.7866 0-1.5389-1.248-2.7865-2.788-2.7865s-2.789 1.2476-2.789 2.7865c0 1.539 1.249 2.7866 2.789 2.7866zm-111.22 209.06c1.54 0 2.789-1.248 2.789-2.787s-1.249-2.786-2.789-2.786-2.788 1.247-2.788 2.786 1.248 2.787 2.788 2.787zm9.644 53.26c0.175 0 0.316-0.142 0.316-0.316s-0.141-0.315-0.316-0.315c-0.174 0-0.315 0.141-0.315 0.315s0.141 0.316 0.315 0.316zm-2.631-10.55c0.31 0 0.562-0.252 0.562-0.561 0-0.31-0.252-0.561-0.562-0.561s-0.561 0.251-0.561 0.561c0 0.309 0.251 0.561 0.561 0.561zm-2.928-7.625c0.494 0 0.894-0.4 0.894-0.893 0-0.494-0.4-0.894-0.894-0.894s-0.894 0.4-0.894 0.894c0 0.493 0.4 0.893 0.894 0.893zm-1.946-9.008c0.62 0 1.122-0.502 1.122-1.121 0-0.62-0.502-1.122-1.122-1.122s-1.122 0.502-1.122 1.122c0 0.619 0.502 1.121 1.122 1.121zm-1.7-8.148c0.765 0 1.385-0.62 1.385-1.385 0-0.764-0.62-1.384-1.385-1.384s-1.386 0.62-1.386 1.384c0 0.765 0.621 1.385 1.386 1.385zm-0.579-8.764c1.23 0 2.227-0.996 2.227-2.225 0-1.23-0.997-2.226-2.227-2.226s-2.227 0.996-2.227 2.226c0 1.229 0.997 2.225 2.227 2.225zm112.79-272.78c0.174 0 0.316-0.1412 0.316-0.3155 0-0.1742-0.142-0.3154-0.316-0.3154s-0.316 0.1412-0.316 0.3154c0 0.1743 0.142 0.3155 0.316 0.3155zm1.86 11.199c0.31 0 0.562-0.2511 0.562-0.5608 0-0.3098-0.252-0.5609-0.562-0.5609s-0.561 0.2511-0.561 0.5609c0 0.3097 0.251 0.5608 0.561 0.5608zm2.367 8.4645c0.494 0 0.895-0.4001 0.895-0.8938 0-0.4936-0.401-0.8938-0.895-0.8938s-0.894 0.4002-0.894 0.8938c0 0.4937 0.4 0.8938 0.894 0.8938zm1.316 9.5863c0.62 0 1.122-0.5022 1.122-1.1216 0-0.6195-0.502-1.1217-1.122-1.1217s-1.122 0.5022-1.122 1.1217c0 0.6194 0.502 1.1216 1.122 1.1216zm1.105 8.7633c0.765 0 1.385-0.6199 1.385-1.3845s-0.62-1.3845-1.385-1.3845c-0.766 0-1.386 0.6199-1.386 1.3845s0.62 1.3845 1.386 1.3845zm-0.105 10.462c1.23 0 2.228-0.9965 2.228-2.2257s-0.998-2.2257-2.228-2.2257-2.227 0.9965-2.227 2.2257 0.997 2.2257 2.227 2.2257zm-0.807 10.218c1.54 0 2.788-1.2476 2.788-2.7865 0-1.539-1.248-2.7866-2.788-2.7866s-2.788 1.2476-2.788 2.7866c0 1.5389 1.248 2.7865 2.788 2.7865zm-125.54 200.79c1.54 0 2.788-1.248 2.788-2.787s-1.248-2.786-2.788-2.786-2.788 1.247-2.788 2.786 1.248 2.787 2.788 2.787zm5.718 53.803c0.174 0 0.315-0.142 0.315-0.316s-0.141-0.315-0.315-0.315-0.316 0.141-0.316 0.315 0.142 0.316 0.316 0.316zm-1.859-10.708c0.31 0 0.562-0.252 0.562-0.561 0-0.31-0.252-0.561-0.562-0.561s-0.561 0.251-0.561 0.561c0 0.309 0.251 0.561 0.561 0.561zm-2.367-7.799c0.494 0 0.894-0.4 0.894-0.894 0-0.493-0.4-0.893-0.894-0.893s-0.895 0.4-0.895 0.893c0 0.494 0.401 0.894 0.895 0.894zm-1.297-9.131c0.62 0 1.122-0.502 1.122-1.122 0-0.619-0.502-1.122-1.122-1.122s-1.122 0.503-1.122 1.122c0 0.62 0.502 1.122 1.122 1.122zm-1.106-8.236c0.765 0 1.386-0.62 1.386-1.385 0-0.764-0.621-1.384-1.386-1.384s-1.385 0.62-1.385 1.384c0 0.765 0.62 1.385 1.385 1.385zm0.089-8.781c1.23 0 2.227-0.997 2.227-2.226s-0.997-2.226-2.227-2.226-2.227 0.997-2.227 2.226 0.997 2.226 2.227 2.226zm131.43-264.27c0.174 0 0.316-0.1413 0.316-0.3155s-0.142-0.3155-0.316-0.3155-0.316 0.1413-0.316 0.3155 0.142 0.3155 0.316 0.3155zm1.087 11.286c0.31 0 0.561-0.2511 0.561-0.5608 0-0.3098-0.251-0.5608-0.561-0.5608s-0.561 0.251-0.561 0.5608c0 0.3097 0.251 0.5608 0.561 0.5608zm1.789 8.6223c0.494 0 0.895-0.4002 0.895-0.8938 0-0.4937-0.401-0.8938-0.895-0.8938s-0.894 0.4001-0.894 0.8938c0 0.4936 0.4 0.8938 0.894 0.8938zm0.649 9.6387c0.62 0 1.123-0.5022 1.123-1.1216 0-0.6195-0.503-1.1216-1.123-1.1216s-1.122 0.5021-1.122 1.1216c0 0.6194 0.502 1.1216 1.122 1.1216zm0.51 8.8336c0.765 0 1.385-0.6198 1.385-1.3845 0-0.7646-0.62-1.3845-1.385-1.3845s-1.385 0.6199-1.385 1.3845c0 0.7647 0.62 1.3845 1.385 1.3845zm-0.755 10.445c1.23 0 2.227-0.9964 2.227-2.2257 0-1.2292-0.997-2.2257-2.227-2.2257s-2.228 0.9965-2.228 2.2257c0 1.2293 0.998 2.2257 2.228 2.2257zm-1.491 10.13c1.54 0 2.788-1.2476 2.788-2.7865 0-1.539-1.248-2.7866-2.788-2.7866s-2.788 1.2476-2.788 2.7866c0 1.5389 1.248 2.7865 2.788 2.7865zm-139.26 191.54c1.5399 0 2.7879-1.248 2.7879-2.787s-1.248-2.786-2.7879-2.786-2.7883 1.247-2.7883 2.786 1.2484 2.787 2.7883 2.787zm1.7886 54.067c0.1743 0 0.3156-0.142 0.3156-0.316s-0.1413-0.315-0.3156-0.315c-0.1744 0-0.3157 0.141-0.3157 0.315s0.1413 0.316 0.3157 0.316zm-1.1051-10.796c0.3099 0 0.5612-0.251 0.5612-0.561s-0.2513-0.561-0.5612-0.561-0.5612 0.251-0.5612 0.561 0.2513 0.561 0.5612 0.561zm-1.7884-7.957c0.494 0 0.8944-0.4 0.8944-0.894 0-0.493-0.4004-0.893-0.8944-0.893-0.4939 0-0.8943 0.4-0.8943 0.893 0 0.494 0.4004 0.894 0.8943 0.894zm-0.6495-9.183c0.6199 0 1.1224-0.502 1.1224-1.122 0-0.619-0.5025-1.121-1.1224-1.121-0.6198 0-1.1223 0.502-1.1223 1.121 0 0.62 0.5025 1.122 1.1223 1.122zm-0.5064-8.307c0.7651 0 1.3853-0.62 1.3853-1.385 0-0.764-0.6202-1.384-1.3853-1.384-0.7652 0-1.3854 0.62-1.3854 1.384 0 0.765 0.6202 1.385 1.3854 1.385zm0.7699-8.763c1.2301 0 2.2272-0.997 2.2272-2.226s-0.9971-2.226-2.2272-2.226c-1.23 0-2.2271 0.997-2.2271 2.226s0.9971 2.226 2.2271 2.226zm149.41-254.45c0.174 0 0.316-0.1413 0.316-0.3155s-0.142-0.3154-0.316-0.3154-0.316 0.1412-0.316 0.3154 0.142 0.3155 0.316 0.3155zm0.334 11.339c0.31 0 0.561-0.2511 0.561-0.5608 0-0.3098-0.251-0.5609-0.561-0.5609s-0.561 0.2511-0.561 0.5609c0 0.3097 0.251 0.5608 0.561 0.5608zm1.192 8.7272c0.494 0 0.894-0.4001 0.894-0.8938 0-0.4936-0.4-0.8938-0.894-0.8938s-0.894 0.4002-0.894 0.8938c0 0.4937 0.4 0.8938 0.894 0.8938zm0 9.6571c0.62 0 1.122-0.5022 1.122-1.1216 0-0.6195-0.502-1.1217-1.122-1.1217s-1.122 0.5022-1.122 1.1217c0 0.6194 0.502 1.1216 1.122 1.1216zm-0.088 8.8497c0.766 0 1.386-0.6198 1.386-1.3845 0-0.7646-0.62-1.3845-1.386-1.3845-0.765 0-1.385 0.6199-1.385 1.3845 0 0.7647 0.62 1.3845 1.385 1.3845zm-1.438 10.358c1.23 0 2.227-0.9965 2.227-2.2258 0-1.2292-0.997-2.2257-2.227-2.2257s-2.227 0.9965-2.227 2.2257c0 1.2293 0.997 2.2258 2.227 2.2258zm-2.157 10.008c1.54 0 2.788-1.2476 2.788-2.7866 0-1.5389-1.248-2.7865-2.788-2.7865s-2.789 1.2476-2.789 2.7865c0 1.539 1.249 2.7866 2.789 2.7866zm-152.29 181.37c1.5399 0 2.7883-1.247 2.7883-2.786s-1.2484-2.787-2.7883-2.787c-1.54 0-2.7883 1.248-2.7883 2.787s1.2483 2.786 2.7883 2.786zm-2.1566 54.049c0.1743 0 0.3156-0.141 0.3156-0.316 0-0.174-0.1413-0.315-0.3156-0.315-0.1744 0-0.3157 0.141-0.3157 0.315 0 0.175 0.1413 0.316 0.3157 0.316zm-0.3172-10.848c0.31 0 0.5612-0.251 0.5612-0.561 0-0.309-0.2512-0.561-0.5612-0.561-0.3099 0-0.5611 0.252-0.5611 0.561 0 0.31 0.2512 0.561 0.5611 0.561zm-1.2097-8.062c0.4939 0 0.8943-0.4 0.8943-0.893 0-0.494-0.4004-0.894-0.8943-0.894-0.494 0-0.8944 0.4-0.8944 0.894 0 0.493 0.4004 0.893 0.8944 0.893zm0.0014-9.218c0.6198 0 1.1223-0.502 1.1223-1.122 0-0.619-0.5025-1.121-1.1223-1.121-0.6199 0-1.1224 0.502-1.1224 1.121 0 0.62 0.5025 1.122 1.1224 1.122zm0.0868-8.307c0.7651 0 1.3853-0.62 1.3853-1.384 0-0.765-0.6202-1.385-1.3853-1.385-0.7652 0-1.3854 0.62-1.3854 1.385 0 0.764 0.6202 1.384 1.3854 1.384zm1.4384-8.675c1.23 0 2.2271-0.997 2.2271-2.226s-0.9971-2.226-2.2271-2.226-2.2271 0.997-2.2271 2.226 0.9971 2.226 2.2271 2.226zm166.68-243.43c0.174 0 0.316-0.1412 0.316-0.3155 0-0.1742-0.142-0.3154-0.316-0.3154s-0.316 0.1412-0.316 0.3154c0 0.1743 0.142 0.3155 0.316 0.3155zm-0.456 11.339c0.31 0 0.561-0.251 0.561-0.5608 0-0.3097-0.251-0.5608-0.561-0.5608s-0.561 0.2511-0.561 0.5608c0 0.3098 0.251 0.5608 0.561 0.5608zm0.631 8.78c0.494 0 0.895-0.4002 0.895-0.8938s-0.401-0.8938-0.895-0.8938-0.894 0.4002-0.894 0.8938 0.4 0.8938 0.894 0.8938zm-0.667 9.639c0.62 0 1.123-0.5021 1.123-1.1216s-0.503-1.1216-1.123-1.1216c-0.619 0-1.122 0.5021-1.122 1.1216s0.503 1.1216 1.122 1.1216zm-0.7 8.8329c0.765 0 1.385-0.6198 1.385-1.3845 0-0.7646-0.62-1.3845-1.385-1.3845-0.766 0-1.386 0.6199-1.386 1.3845 0 0.7647 0.62 1.3845 1.386 1.3845zm-2.088 10.218c1.23 0 2.227-0.9965 2.227-2.2257 0-1.2293-0.997-2.2257-2.227-2.2257s-2.227 0.9964-2.227 2.2257c0 1.2292 0.997 2.2257 2.227 2.2257zm-2.806 9.8319c1.54 0 2.788-1.2476 2.788-2.7866s-1.248-2.7865-2.788-2.7865-2.789 1.2475-2.789 2.7865 1.249 2.7866 2.789 2.7866zm-164.58 170.31c1.5399 0 2.7883-1.248 2.7883-2.787s-1.2484-2.786-2.7883-2.786c-1.54 0-2.7883 1.247-2.7883 2.786s1.2483 2.787 2.7883 2.787zm-6.1016 53.768c0.1744 0 0.3157-0.141 0.3157-0.316 0-0.174-0.1413-0.315-0.3157-0.315-0.1743 0-0.3156 0.141-0.3156 0.315 0 0.175 0.1413 0.316 0.3156 0.316zm0.4559-10.849c0.3099 0 0.5611-0.251 0.5611-0.561 0-0.309-0.2512-0.56-0.5611-0.56-0.31 0-0.5612 0.251-0.5612 0.56 0 0.31 0.2512 0.561 0.5612 0.561zm-0.6141-8.114c0.4939 0 0.8944-0.4 0.8944-0.893 0-0.494-0.4005-0.894-0.8944-0.894s-0.8944 0.4-0.8944 0.894c0 0.493 0.4005 0.893 0.8944 0.893zm0.6665-9.183c0.6198 0 1.1223-0.502 1.1223-1.122 0-0.619-0.5025-1.121-1.1223-1.121-0.6199 0-1.1224 0.502-1.1224 1.121 0 0.62 0.5025 1.122 1.1224 1.122zm0.684-8.307c0.7651 0 1.3854-0.62 1.3854-1.385 0-0.764-0.6203-1.384-1.3854-1.384s-1.3854 0.62-1.3854 1.384c0 0.765 0.6203 1.385 1.3854 1.385zm2.0859-8.552c1.23 0 2.2272-0.997 2.2272-2.226s-0.9972-2.226-2.2272-2.226-2.2271 0.997-2.2271 2.226 0.9971 2.226 2.2271 2.226zm183.15-231.21c0.174 0 0.315-0.1413 0.315-0.3155s-0.141-0.3154-0.315-0.3154c-0.175 0-0.316 0.1412-0.316 0.3154s0.141 0.3155 0.316 0.3155zm-1.228 11.286c0.31 0 0.561-0.2511 0.561-0.5608s-0.251-0.5608-0.561-0.5608-0.561 0.2511-0.561 0.5608 0.251 0.5608 0.561 0.5608zm0.017 8.7983c0.494 0 0.894-0.4002 0.894-0.8938s-0.4-0.8938-0.894-0.8938-0.894 0.4002-0.894 0.8938 0.4 0.8938 0.894 0.8938zm-1.315 9.5863c0.62 0 1.123-0.5022 1.123-1.1217 0-0.6194-0.503-1.1216-1.123-1.1216s-1.122 0.5022-1.122 1.1216c0 0.6195 0.502 1.1217 1.122 1.1217zm-1.279 8.745c0.765 0 1.385-0.6199 1.385-1.3845 0-0.7647-0.62-1.3845-1.385-1.3845s-1.386 0.6198-1.386 1.3845c0 0.7646 0.621 1.3845 1.386 1.3845zm-2.755 10.059c1.23 0 2.228-0.9965 2.228-2.2258 0-1.2292-0.998-2.2257-2.228-2.2257s-2.227 0.9965-2.227 2.2257c0 1.2293 0.997 2.2258 2.227 2.2258zm-3.454 9.6216c1.54 0 2.789-1.2476 2.789-2.7865 0-1.539-1.249-2.7866-2.789-2.7866s-2.788 1.2476-2.788 2.7866c0 1.5389 1.248 2.7865 2.788 2.7865zm-176.05 158.41c1.5399 0 2.7883-1.248 2.7883-2.787s-1.2484-2.786-2.7883-2.786c-1.54 0-2.7883 1.247-2.7883 2.786s1.2483 2.787 2.7883 2.787zm-10.014 53.207c0.1743 0 0.3157-0.142 0.3157-0.316s-0.1414-0.315-0.3157-0.315-0.3156 0.141-0.3156 0.315 0.1413 0.316 0.3156 0.316zm1.2275-10.796c0.3099 0 0.5611-0.251 0.5611-0.561s-0.2512-0.561-0.5611-0.561c-0.31 0-0.5612 0.251-0.5612 0.561s0.2512 0.561 0.5612 0.561zm-0.0355-8.132c0.494 0 0.8944-0.4 0.8944-0.894 0-0.493-0.4004-0.894-0.8944-0.894-0.4939 0-0.8944 0.401-0.8944 0.894 0 0.494 0.4005 0.894 0.8944 0.894zm1.3157-9.13c0.6199 0 1.1224-0.502 1.1224-1.122 0-0.619-0.5025-1.121-1.1224-1.121-0.6198 0-1.1223 0.502-1.1223 1.121 0 0.62 0.5025 1.122 1.1223 1.122zm1.2974-8.22c0.7651 0 1.3854-0.62 1.3854-1.385 0-0.764-0.6203-1.384-1.3854-1.384s-1.3854 0.62-1.3854 1.384c0 0.765 0.6203 1.385 1.3854 1.385zm2.7348-8.377c1.23 0 2.2271-0.996 2.2271-2.226 0-1.229-0.9971-2.225-2.2271-2.225s-2.2271 0.996-2.2271 2.225c0 1.23 0.9971 2.226 2.2271 2.226zm198.71-217.89c0.175 0 0.316-0.1412 0.316-0.3154 0-0.1743-0.141-0.3155-0.316-0.3155-0.174 0-0.315 0.1412-0.315 0.3155 0 0.1742 0.141 0.3154 0.315 0.3154zm-2 11.164c0.31 0 0.561-0.2511 0.561-0.5608s-0.251-0.5608-0.561-0.5608-0.561 0.2511-0.561 0.5608 0.251 0.5608 0.561 0.5608zm-0.56 8.7805c0.494 0 0.894-0.4002 0.894-0.8938s-0.4-0.8938-0.894-0.8938-0.894 0.4002-0.894 0.8938 0.4 0.8938 0.894 0.8938zm-1.964 9.4635c0.62 0 1.122-0.5022 1.122-1.1217 0-0.6194-0.502-1.1216-1.122-1.1216s-1.122 0.5022-1.122 1.1216c0 0.6195 0.502 1.1217 1.122 1.1217zm-1.877 8.6402c0.765 0 1.385-0.6198 1.385-1.3845 0-0.7646-0.62-1.3845-1.385-1.3845s-1.385 0.6199-1.385 1.3845c0 0.7647 0.62 1.3845 1.385 1.3845zm-3.385 9.8497c1.23 0 2.227-0.9965 2.227-2.2257 0-1.2293-0.997-2.2258-2.227-2.2258s-2.227 0.9965-2.227 2.2258c0 1.2292 0.997 2.2257 2.227 2.2257zm-4.067 9.3582c1.54 0 2.788-1.2476 2.788-2.7865 0-1.539-1.248-2.7866-2.788-2.7866s-2.788 1.2476-2.788 2.7866c0 1.5389 1.248 2.7865 2.788 2.7865zm-186.69 145.76c1.54 0 2.7883-1.248 2.7883-2.787s-1.2483-2.786-2.7883-2.786c-1.5399 0-2.7883 1.247-2.7883 2.786s1.2484 2.787 2.7883 2.787zm-13.871 52.366c0.1744 0 0.3157-0.141 0.3157-0.316 0-0.174-0.1413-0.315-0.3157-0.315-0.1743 0-0.3156 0.141-0.3156 0.315 0 0.175 0.1413 0.316 0.3156 0.316zm1.9809-10.673c0.3099 0 0.5612-0.252 0.5612-0.561 0-0.31-0.2513-0.561-0.5612-0.561s-0.5612 0.251-0.5612 0.561c0 0.309 0.2513 0.561 0.5612 0.561zm0.5612-8.114c0.494 0 0.8944-0.4 0.8944-0.894s-0.4004-0.894-0.8944-0.894c-0.4939 0-0.8943 0.4-0.8943 0.894s0.4004 0.894 0.8943 0.894zm1.9813-9.008c0.6199 0 1.1223-0.503 1.1223-1.122 0-0.62-0.5024-1.122-1.1223-1.122s-1.1223 0.502-1.1223 1.122c0 0.619 0.5024 1.122 1.1223 1.122zm1.8779-8.115c0.7651 0 1.3854-0.62 1.3854-1.384 0-0.765-0.6203-1.385-1.3854-1.385s-1.3854 0.62-1.3854 1.385c0 0.764 0.6203 1.384 1.3854 1.384zm3.3844-8.166c1.23 0 2.2271-0.997 2.2271-2.226s-0.9971-2.226-2.2271-2.226-2.2272 0.997-2.2272 2.226 0.9972 2.226 2.2272 2.226zm213.28-203.52c0.174 0 0.316-0.1413 0.316-0.3155s-0.142-0.3155-0.316-0.3155-0.316 0.1413-0.316 0.3155 0.142 0.3155 0.316 0.3155zm-2.754 11.006c0.31 0 0.561-0.2511 0.561-0.5609 0-0.3097-0.251-0.5608-0.561-0.5608s-0.561 0.2511-0.561 0.5608c0 0.3098 0.251 0.5609 0.561 0.5609zm-1.139 8.7279c0.494 0 0.894-0.4001 0.894-0.8938 0-0.4936-0.4-0.8938-0.894-0.8938s-0.895 0.4002-0.895 0.8938c0 0.4937 0.401 0.8938 0.895 0.8938zm-2.613 9.3063c0.62 0 1.122-0.5022 1.122-1.1216 0-0.6195-0.502-1.1217-1.122-1.1217s-1.123 0.5022-1.123 1.1217c0 0.6194 0.503 1.1216 1.123 1.1216zm-2.456 8.482c0.765 0 1.385-0.6198 1.385-1.3845 0-0.7646-0.62-1.3845-1.385-1.3845s-1.385 0.6199-1.385 1.3845c0 0.7647 0.62 1.3845 1.385 1.3845zm-4.015 9.5863c1.23 0 2.227-0.9965 2.227-2.2257 0-1.2293-0.997-2.2258-2.227-2.2258s-2.227 0.9965-2.227 2.2258c0 1.2292 0.997 2.2257 2.227 2.2257zm-4.666 9.0423c1.54 0 2.789-1.247 2.789-2.786s-1.249-2.7866-2.789-2.7866-2.788 1.2476-2.788 2.7866 1.248 2.786 2.788 2.786zm-196.41 132.41c1.54 0 2.7883-1.248 2.7883-2.787s-1.2483-2.786-2.7883-2.786c-1.5399 0-2.7883 1.247-2.7883 2.786s1.2484 2.787 2.7883 2.787zm-17.676 51.261c0.1743 0 0.3156-0.141 0.3156-0.315 0-0.175-0.1413-0.316-0.3156-0.316-0.1744 0-0.3157 0.141-0.3157 0.316 0 0.174 0.1413 0.315 0.3157 0.315zm2.7538-10.515c0.3099 0 0.5611-0.251 0.5611-0.561s-0.2512-0.561-0.5611-0.561c-0.31 0-0.5612 0.251-0.5612 0.561s0.2512 0.561 0.5612 0.561zm1.1569-8.062c0.4939 0 0.8944-0.4 0.8944-0.893 0-0.494-0.4005-0.894-0.8944-0.894s-0.8944 0.4-0.8944 0.894c0 0.493 0.4005 0.893 0.8944 0.893zm2.6122-8.85c0.6199 0 1.1224-0.502 1.1224-1.121 0-0.62-0.5025-1.122-1.1224-1.122-0.6198 0-1.1223 0.502-1.1223 1.122 0 0.619 0.5025 1.121 1.1223 1.121zm2.4545-7.956c0.7651 0 1.3854-0.62 1.3854-1.384 0-0.765-0.6203-1.385-1.3854-1.385s-1.3854 0.62-1.3854 1.385c0 0.764 0.6203 1.384 1.3854 1.384zm3.9995-7.904c1.23 0 2.2271-0.997 2.2271-2.226s-0.9971-2.226-2.2271-2.226-2.2272 0.997-2.2272 2.226 0.9972 2.226 2.2272 2.226zm226.83-188.15c0.174 0 0.316-0.1413 0.316-0.3155s-0.142-0.3155-0.316-0.3155-0.316 0.1413-0.316 0.3155 0.142 0.3155 0.316 0.3155zm-3.489 10.778c0.31 0 0.561-0.2511 0.561-0.5608 0-0.3098-0.251-0.5609-0.561-0.5609s-0.562 0.2511-0.562 0.5609c0 0.3097 0.252 0.5608 0.562 0.5608zm-1.737 8.623c0.494 0 0.894-0.4002 0.894-0.8938 0-0.4937-0.4-0.8938-0.894-0.8938s-0.894 0.4001-0.894 0.8938c0 0.4936 0.4 0.8938 0.894 0.8938zm-3.244 9.095c0.62 0 1.123-0.5021 1.123-1.1216s-0.503-1.1216-1.123-1.1216-1.122 0.5021-1.122 1.1216 0.502 1.1216 1.122 1.1216zm-3.016 8.3073c0.765 0 1.385-0.6199 1.385-1.3845 0-0.7647-0.62-1.3845-1.385-1.3845s-1.386 0.6198-1.386 1.3845c0 0.7646 0.621 1.3845 1.386 1.3845zm-4.612 9.2881c1.23 0 2.227-0.997 2.227-2.2259 0-1.2293-0.997-2.2258-2.227-2.2258s-2.227 0.9965-2.227 2.2258c0 1.2289 0.997 2.2259 2.227 2.2259zm-5.245 8.693c1.54 0 2.788-1.248 2.788-2.787s-1.248-2.786-2.788-2.786-2.788 1.247-2.788 2.786 1.248 2.787 2.788 2.787zm-205.18 118.38c1.5399 0 2.7883-1.248 2.7883-2.787s-1.2484-2.786-2.7883-2.786-2.7883 1.247-2.7883 2.786 1.2484 2.787 2.7883 2.787zm-21.377 49.894c0.1743 0 0.3156-0.141 0.3156-0.315s-0.1413-0.316-0.3156-0.316c-0.1744 0-0.3157 0.142-0.3157 0.316s0.1413 0.315 0.3157 0.315zm3.4891-10.287c0.31 0 0.5612-0.251 0.5612-0.561s-0.2512-0.561-0.5612-0.561c-0.3099 0-0.5611 0.251-0.5611 0.561s0.2512 0.561 0.5611 0.561zm1.7356-7.957c0.4939 0 0.8943-0.4 0.8943-0.894 0-0.493-0.4004-0.893-0.8943-0.893-0.494 0-0.8944 0.4-0.8944 0.893 0 0.494 0.4004 0.894 0.8944 0.894zm3.245-8.639c0.6199 0 1.1224-0.502 1.1224-1.122 0-0.619-0.5025-1.122-1.1224-1.122-0.6198 0-1.1223 0.503-1.1223 1.122 0 0.62 0.5025 1.122 1.1223 1.122zm3.016-7.782c0.7651 0 1.3854-0.62 1.3854-1.385s-0.6203-1.384-1.3854-1.384-1.3854 0.619-1.3854 1.384 0.6203 1.385 1.3854 1.385zm4.6123-7.606c1.23 0 2.2271-0.997 2.2271-2.226s-0.9971-2.226-2.2271-2.226-2.2272 0.997-2.2272 2.226 0.9972 2.226 2.2272 2.226zm239.29-171.89c0.174 0 0.315-0.1412 0.315-0.3155 0-0.1742-0.141-0.3154-0.315-0.3154-0.175 0-0.316 0.1412-0.316 0.3154 0 0.1743 0.141 0.3155 0.316 0.3155zm-4.228 10.516c0.31 0 0.561-0.2511 0.561-0.5608s-0.251-0.5608-0.561-0.5608-0.562 0.2511-0.562 0.5608 0.252 0.5608 0.562 0.5608zm-2.296 8.4819c0.494 0 0.894-0.4002 0.894-0.8938s-0.4-0.8938-0.894-0.8938-0.894 0.4002-0.894 0.8938 0.4 0.8938 0.894 0.8938zm-3.859 8.8504c0.62 0 1.123-0.5021 1.123-1.1216s-0.503-1.1216-1.123-1.1216c-0.619 0-1.122 0.5021-1.122 1.1216s0.503 1.1216 1.122 1.1216zm-3.577 8.062c0.765 0 1.385-0.6197 1.385-1.3843 0-0.7647-0.62-1.3846-1.385-1.3846s-1.386 0.6199-1.386 1.3846c0 0.7646 0.621 1.3843 1.386 1.3843zm-5.173 8.956c1.23 0 2.227-0.997 2.227-2.226s-0.997-2.226-2.227-2.226-2.227 0.997-2.227 2.226 0.997 2.226 2.227 2.226zm-5.822 8.324c1.54 0 2.788-1.247 2.788-2.786s-1.248-2.787-2.788-2.787-2.789 1.248-2.789 2.787 1.249 2.786 2.789 2.786zm-212.93 103.79c1.54 0 2.7883-1.248 2.7883-2.787s-1.2483-2.786-2.7883-2.786c-1.5399 0-2.7883 1.247-2.7883 2.786s1.2484 2.787 2.7883 2.787zm-24.99 48.283c0.1743 0 0.3157-0.142 0.3157-0.316s-0.1414-0.315-0.3157-0.315-0.3157 0.141-0.3157 0.315 0.1414 0.316 0.3157 0.316zm4.226-10.025c0.3099 0 0.5612-0.251 0.5612-0.56 0-0.31-0.2513-0.561-0.5612-0.561s-0.5612 0.251-0.5612 0.561c0 0.309 0.2513 0.56 0.5612 0.56zm2.3166-7.817c0.4939 0 0.8943-0.4 0.8943-0.894 0-0.493-0.4004-0.893-0.8943-0.893-0.494 0-0.8944 0.4-0.8944 0.893 0 0.494 0.4004 0.894 0.8944 0.894zm3.8388-8.394c0.6198 0 1.1223-0.502 1.1223-1.122 0-0.619-0.5025-1.121-1.1223-1.121-0.6199 0-1.1223 0.502-1.1223 1.121 0 0.62 0.5024 1.122 1.1223 1.122zm3.5785-7.554c0.7651 0 1.3853-0.619 1.3853-1.384s-0.6202-1.385-1.3853-1.385c-0.7652 0-1.3854 0.62-1.3854 1.385s0.6202 1.384 1.3854 1.384zm5.1894-7.256c1.23 0 2.2271-0.996 2.2271-2.226 0-1.229-0.9971-2.225-2.2271-2.225s-2.2272 0.996-2.2272 2.225c0 1.23 0.9972 2.226 2.2272 2.226zm250.56-154.8c0.174 0 0.316-0.1413 0.316-0.3155s-0.142-0.3155-0.316-0.3155-0.316 0.1413-0.316 0.3155 0.142 0.3155 0.316 0.3155zm-4.928 10.199c0.31 0 0.562-0.2511 0.562-0.5608 0-0.3098-0.252-0.5609-0.562-0.5609s-0.561 0.2511-0.561 0.5609c0 0.3097 0.251 0.5608 0.561 0.5608zm-2.876 8.307c0.494 0 0.894-0.4001 0.894-0.8938 0-0.4936-0.4-0.8937-0.894-0.8937s-0.894 0.4001-0.894 0.8937c0 0.4937 0.4 0.8938 0.894 0.8938zm-4.436 8.5528c0.62 0 1.122-0.503 1.122-1.122 0-0.6195-0.502-1.1217-1.122-1.1217s-1.122 0.5022-1.122 1.1217c0 0.619 0.502 1.122 1.122 1.122zm-4.103 7.799c0.765 0 1.385-0.62 1.385-1.384 0-0.765-0.62-1.385-1.385-1.385s-1.386 0.62-1.386 1.385c0 0.764 0.621 1.384 1.386 1.384zm-5.752 8.569c1.23 0 2.227-0.996 2.227-2.225 0-1.23-0.997-2.226-2.227-2.226s-2.227 0.996-2.227 2.226c0 1.229 0.997 2.225 2.227 2.225zm-6.331 7.887c1.54 0 2.789-1.248 2.789-2.787s-1.249-2.786-2.789-2.786-2.788 1.247-2.788 2.786 1.248 2.787 2.788 2.787zm-219.66 88.696c1.5399 0 2.7883-1.247 2.7883-2.786s-1.2484-2.787-2.7883-2.787c-1.54 0-2.7883 1.248-2.7883 2.787s1.2483 2.786 2.7883 2.786zm-28.46 46.425c0.1744 0 0.3157-0.141 0.3157-0.316 0-0.174-0.1413-0.315-0.3157-0.315-0.1743 0-0.3156 0.141-0.3156 0.315 0 0.175 0.1413 0.316 0.3156 0.316zm4.9275-9.709c0.31 0 0.5612-0.251 0.5612-0.561 0-0.309-0.2512-0.56-0.5612-0.56-0.3099 0-0.5611 0.251-0.5611 0.56 0 0.31 0.2512 0.561 0.5611 0.561zm2.8758-7.641c0.494 0 0.8944-0.4 0.8944-0.893 0-0.494-0.4004-0.894-0.8944-0.894-0.4939 0-0.8943 0.4-0.8943 0.894 0 0.493 0.4004 0.893 0.8943 0.893zm4.4355-8.097c0.6199 0 1.1224-0.502 1.1224-1.122 0-0.619-0.5025-1.121-1.1224-1.121-0.6198 0-1.1223 0.502-1.1223 1.121 0 0.62 0.5025 1.122 1.1223 1.122zm4.122-7.272c0.7651 0 1.3853-0.62 1.3853-1.385 0-0.764-0.6202-1.384-1.3853-1.384-0.7652 0-1.3854 0.62-1.3854 1.384 0 0.765 0.6202 1.385 1.3854 1.385zm5.7358-6.888c1.23 0 2.2271-0.997 2.2271-2.226s-0.9971-2.226-2.2271-2.226c-1.2301 0-2.2272 0.997-2.2272 2.226s0.9971 2.226 2.2272 2.226zm260.63-136.96c0.174 0 0.315-0.1413 0.315-0.3155s-0.141-0.3155-0.315-0.3155c-0.175 0-0.316 0.1413-0.316 0.3155s0.141 0.3155 0.316 0.3155zm-5.611 9.8315c0.309 0 0.561-0.2511 0.561-0.5608 0-0.3098-0.252-0.5608-0.561-0.5608-0.31 0-0.562 0.251-0.562 0.5608 0 0.3097 0.252 0.5608 0.562 0.5608zm-3.421 8.0788c0.494 0 0.894-0.4 0.894-0.894 0-0.493-0.4-0.894-0.894-0.894s-0.895 0.401-0.895 0.894c0 0.494 0.401 0.894 0.895 0.894zm-5.014 8.237c0.62 0 1.123-0.502 1.123-1.121 0-0.62-0.503-1.122-1.123-1.122s-1.122 0.502-1.122 1.122c0 0.619 0.502 1.121 1.122 1.121zm-4.629 7.483c0.765 0 1.385-0.619 1.385-1.384s-0.62-1.385-1.385-1.385-1.386 0.62-1.386 1.385 0.621 1.384 1.386 1.384zm-6.261 8.168c1.23 0 2.227-0.997 2.227-2.226s-0.997-2.225-2.227-2.225-2.227 0.996-2.227 2.225 0.997 2.226 2.227 2.226zm-6.84 7.413c1.54 0 2.788-1.248 2.788-2.787s-1.248-2.786-2.788-2.786-2.788 1.247-2.788 2.786 1.248 2.787 2.788 2.787zm-225.31 73.169c1.5399 0 2.7883-1.248 2.7883-2.787s-1.2484-2.786-2.7883-2.786c-1.54 0-2.7883 1.247-2.7883 2.786s1.2483 2.787 2.7883 2.787zm-31.814 44.321c0.1743 0 0.3157-0.141 0.3157-0.315 0-0.175-0.1414-0.316-0.3157-0.316s-0.3156 0.141-0.3156 0.316c0 0.174 0.1413 0.315 0.3156 0.315zm5.6127-9.34c0.3099 0 0.5612-0.251 0.5612-0.561s-0.2513-0.561-0.5612-0.561-0.5612 0.251-0.5612 0.561 0.2513 0.561 0.5612 0.561zm3.4187-7.414c0.4939 0 0.8943-0.4 0.8943-0.894s-0.4004-0.894-0.8943-0.894c-0.494 0-0.8944 0.4-0.8944 0.894s0.4004 0.894 0.8944 0.894zm5.0159-7.781c0.6198 0 1.1223-0.502 1.1223-1.122 0-0.619-0.5025-1.121-1.1223-1.121-0.6199 0-1.1223 0.502-1.1223 1.121 0 0.62 0.5024 1.122 1.1223 1.122zm4.6289-6.958c0.7651 0 1.3854-0.62 1.3854-1.384 0-0.765-0.6203-1.385-1.3854-1.385s-1.3854 0.62-1.3854 1.385c0 0.764 0.6203 1.384 1.3854 1.384zm6.261-6.484c1.2301 0 2.2272-0.997 2.2272-2.226s-0.9971-2.226-2.2272-2.226c-1.23 0-2.2271 0.997-2.2271 2.226s0.9971 2.226 2.2271 2.226zm269.43-118.46c0.174 0 0.316-0.1413 0.316-0.3155s-0.142-0.3155-0.316-0.3155-0.315 0.1413-0.315 0.3155 0.141 0.3155 0.315 0.3155zm-6.278 9.429c0.31 0 0.561-0.251 0.561-0.561s-0.251-0.561-0.561-0.561-0.561 0.251-0.561 0.561 0.251 0.561 0.561 0.561zm-3.946 7.816c0.494 0 0.895-0.4 0.895-0.894 0-0.493-0.401-0.893-0.895-0.893s-0.894 0.4-0.894 0.893c0 0.494 0.4 0.894 0.894 0.894zm-5.559 7.869c0.62 0 1.123-0.502 1.123-1.122 0-0.619-0.503-1.122-1.123-1.122-0.619 0-1.122 0.503-1.122 1.122 0 0.62 0.503 1.122 1.122 1.122zm-5.121 7.151c0.765 0 1.385-0.62 1.385-1.384 0-0.765-0.62-1.385-1.385-1.385s-1.385 0.62-1.385 1.385c0 0.764 0.62 1.384 1.385 1.384zm-6.768 7.693c1.23 0 2.227-0.997 2.227-2.226s-0.997-2.226-2.227-2.226-2.227 0.997-2.227 2.226 0.997 2.226 2.227 2.226zm-7.297 6.941c1.54 0 2.789-1.248 2.789-2.787s-1.249-2.786-2.789-2.786-2.788 1.247-2.788 2.786 1.248 2.787 2.788 2.787zm-229.87 57.273c1.54 0 2.7883-1.248 2.7883-2.787s-1.2483-2.786-2.7883-2.786c-1.5399 0-2.7883 1.247-2.7883 2.786s1.2484 2.787 2.7883 2.787zm-34.984 41.973c0.1744 0 0.3157-0.142 0.3157-0.316s-0.1413-0.315-0.3157-0.315c-0.1743 0-0.3156 0.141-0.3156 0.315s0.1413 0.316 0.3156 0.316zm6.2602-8.921c0.3099 0 0.5612-0.251 0.5612-0.561 0-0.309-0.2513-0.56-0.5612-0.56s-0.5612 0.251-0.5612 0.56c0 0.31 0.2513 0.561 0.5612 0.561zm3.9617-7.149c0.494 0 0.8944-0.401 0.8944-0.894 0-0.494-0.4004-0.894-0.8944-0.894-0.4939 0-0.8943 0.4-0.8943 0.894 0 0.493 0.4004 0.894 0.8943 0.894zm5.5434-7.414c0.6199 0 1.1224-0.502 1.1224-1.121 0-0.62-0.5025-1.122-1.1224-1.122-0.6198 0-1.1223 0.502-1.1223 1.122 0 0.619 0.5025 1.121 1.1223 1.121zm5.1194-6.625c0.7651 0 1.3854-0.619 1.3854-1.384s-0.6203-1.385-1.3854-1.385-1.3854 0.62-1.3854 1.385 0.6203 1.384 1.3854 1.384zm6.7701-6.011c1.23 0 2.2271-0.997 2.2271-2.226s-0.9971-2.226-2.2271-2.226-2.2271 0.997-2.2271 2.226 0.9971 2.226 2.2271 2.226zm276.9-99.387c0.174 0 0.315-0.141 0.315-0.315 0-0.175-0.141-0.316-0.315-0.316-0.175 0-0.316 0.141-0.316 0.316 0 0.174 0.141 0.315 0.316 0.315zm-6.891 8.956c0.31 0 0.561-0.251 0.561-0.561s-0.251-0.561-0.561-0.561-0.561 0.251-0.561 0.561 0.251 0.561 0.561 0.561zm-4.472 7.536c0.494 0 0.895-0.4 0.895-0.894s-0.401-0.894-0.895-0.894-0.894 0.4-0.894 0.894 0.4 0.894 0.894 0.894zm-6.085 7.448c0.62 0 1.123-0.502 1.123-1.122 0-0.619-0.503-1.121-1.123-1.121s-1.122 0.502-1.122 1.121c0 0.62 0.502 1.122 1.122 1.122zm-5.577 6.782c0.765 0 1.385-0.62 1.385-1.384 0-0.765-0.62-1.385-1.385-1.385s-1.385 0.62-1.385 1.385c0 0.764 0.62 1.384 1.385 1.384zm-7.225 7.203c1.23 0 2.228-0.996 2.228-2.225 0-1.23-0.998-2.226-2.228-2.226s-2.227 0.996-2.227 2.226c0 1.229 0.997 2.225 2.227 2.225zm-7.734 6.415c1.54 0 2.788-1.248 2.788-2.787s-1.248-2.786-2.788-2.786-2.789 1.247-2.789 2.786 1.249 2.787 2.789 2.787zm-233.3 41.115c1.5399 0 2.7883-1.248 2.7883-2.787s-1.2484-2.786-2.7883-2.786c-1.54 0-2.7883 1.247-2.7883 2.786s1.2483 2.787 2.7883 2.787zm-38.002 39.431c0.1744 0 0.3157-0.141 0.3157-0.315s-0.1413-0.316-0.3157-0.316c-0.1743 0-0.3156 0.142-0.3156 0.316s0.1413 0.315 0.3156 0.315zm6.8749-8.464c0.3099 0 0.5612-0.251 0.5612-0.561 0-0.309-0.2513-0.56-0.5612-0.56s-0.5611 0.251-0.5611 0.56c0 0.31 0.2512 0.561 0.5611 0.561zm4.4719-6.87c0.4939 0 0.8944-0.4 0.8944-0.894s-0.4005-0.894-0.8944-0.894c-0.494 0-0.8944 0.4-0.8944 0.894s0.4004 0.894 0.8944 0.894zm6.0849-6.993c0.6198 0 1.1223-0.502 1.1223-1.121 0-0.62-0.5025-1.122-1.1223-1.122-0.6199 0-1.1223 0.502-1.1223 1.122 0 0.619 0.5024 1.121 1.1223 1.121zm5.5941-6.256c0.7651 0 1.3854-0.62 1.3854-1.385s-0.6203-1.384-1.3854-1.384-1.3854 0.619-1.3854 1.384 0.6203 1.385 1.3854 1.385zm7.2069-5.521c1.23 0 2.2271-0.996 2.2271-2.225 0-1.23-0.9971-2.226-2.2271-2.226s-2.2272 0.996-2.2272 2.226c0 1.229 0.9972 2.225 2.2272 2.225zm283.04-79.846c0.174 0 0.316-0.141 0.316-0.316 0-0.174-0.142-0.315-0.316-0.315s-0.316 0.141-0.316 0.315c0 0.175 0.142 0.316 0.316 0.316zm-7.488 8.448c0.31 0 0.561-0.251 0.561-0.561s-0.251-0.561-0.561-0.561-0.562 0.251-0.562 0.561 0.252 0.561 0.562 0.561zm-4.963 7.202c0.494 0 0.895-0.4 0.895-0.894 0-0.493-0.401-0.894-0.895-0.894s-0.894 0.401-0.894 0.894c0 0.494 0.4 0.894 0.894 0.894zm-6.557 7.011c0.62 0 1.122-0.502 1.122-1.122 0-0.619-0.502-1.121-1.122-1.121s-1.123 0.502-1.123 1.121c0 0.62 0.503 1.122 1.123 1.122zm-6.035 6.379c0.766 0 1.386-0.62 1.386-1.385 0-0.764-0.62-1.384-1.386-1.384-0.765 0-1.385 0.62-1.385 1.384 0 0.765 0.62 1.385 1.385 1.385zm-7.645 6.695c1.23 0 2.227-0.997 2.227-2.226s-0.997-2.226-2.227-2.226-2.227 0.997-2.227 2.226 0.997 2.226 2.227 2.226zm-8.119 5.853c1.54 0 2.788-1.247 2.788-2.786s-1.248-2.787-2.788-2.787-2.788 1.248-2.788 2.787 1.248 2.786 2.788 2.786zm-235.6 24.746c1.54 0 2.7883-1.247 2.7883-2.786s-1.2483-2.787-2.7883-2.787c-1.5399 0-2.7883 1.248-2.7883 2.787s1.2484 2.786 2.7883 2.786zm-40.842 36.681c0.17433 0 0.31565-0.141 0.31565-0.316 0-0.174-0.14132-0.315-0.31565-0.315s-0.31566 0.141-0.31566 0.315c0 0.175 0.14133 0.316 0.31566 0.316zm7.4706-7.957c0.31 0 0.5612-0.251 0.5612-0.56 0-0.31-0.2512-0.561-0.5612-0.561-0.3099 0-0.5611 0.251-0.5611 0.561 0 0.309 0.2512 0.56 0.5611 0.56zm4.9626-6.537c0.494 0 0.8944-0.4 0.8944-0.894s-0.4004-0.894-0.8944-0.894c-0.4939 0-0.8943 0.4-0.8943 0.894s0.4004 0.894 0.8943 0.894zm6.5757-6.554c0.6198 0 1.1223-0.503 1.1223-1.122 0-0.62-0.5025-1.122-1.1223-1.122-0.6199 0-1.1224 0.502-1.1224 1.122 0 0.619 0.5025 1.122 1.1224 1.122zm6.0135-5.854c0.7651 0 1.3854-0.62 1.3854-1.385 0-0.764-0.6203-1.384-1.3854-1.384s-1.3854 0.62-1.3854 1.384c0 0.765 0.6203 1.385 1.3854 1.385zm7.647-5.012c1.2301 0 2.2272-0.997 2.2272-2.226s-0.9971-2.226-2.2272-2.226c-1.23 0-2.2271 0.997-2.2271 2.226s0.9971 2.226 2.2271 2.226zm287.79-59.919c0.174 0 0.316-0.141 0.316-0.315 0-0.175-0.142-0.316-0.316-0.316s-0.316 0.141-0.316 0.316c0 0.174 0.142 0.315 0.316 0.315zm-8.031 7.904c0.31 0 0.561-0.251 0.561-0.561s-0.251-0.561-0.561-0.561-0.561 0.251-0.561 0.561 0.251 0.561 0.561 0.561zm-5.437 6.851c0.494 0 0.895-0.4 0.895-0.893 0-0.494-0.401-0.894-0.895-0.894s-0.894 0.4-0.894 0.894c0 0.493 0.4 0.893 0.894 0.893zm-7.032 6.538c0.619 0 1.122-0.503 1.122-1.122 0-0.62-0.503-1.122-1.122-1.122-0.62 0-1.123 0.502-1.123 1.122 0 0.619 0.503 1.122 1.123 1.122zm-6.436 5.941c0.765 0 1.386-0.62 1.386-1.385s-0.621-1.384-1.386-1.384-1.385 0.619-1.385 1.384 0.62 1.385 1.385 1.385zm-8.031 6.133c1.23 0 2.227-0.996 2.227-2.225s-0.997-2.226-2.227-2.226-2.227 0.997-2.227 2.226 0.997 2.225 2.227 2.225zm-8.471 5.276c1.54 0 2.789-1.247 2.789-2.786s-1.249-2.787-2.789-2.787c-1.539 0-2.788 1.248-2.788 2.787s1.249 2.786 2.788 2.786zm-236.76 8.272c1.54 0 2.7883-1.248 2.7883-2.787s-1.2483-2.786-2.7883-2.786c-1.5399 0-2.7883 1.247-2.7883 2.786s1.2484 2.787 2.7883 2.787zm-43.474 33.737c0.17433 0 0.31566-0.142 0.31566-0.316s-0.14133-0.315-0.31566-0.315-0.31565 0.141-0.31565 0.315 0.14132 0.316 0.31565 0.316zm8.033-7.414c0.3099 0 0.5612-0.251 0.5612-0.56 0-0.31-0.2513-0.561-0.5612-0.561s-0.5612 0.251-0.5612 0.561c0 0.309 0.2513 0.56 0.5612 0.56zm5.4183-6.187c0.4939 0 0.8943-0.4 0.8943-0.893 0-0.494-0.4004-0.894-0.8943-0.894-0.494 0-0.8944 0.4-0.8944 0.894 0 0.493 0.4004 0.893 0.8944 0.893zm7.0321-6.08c0.6199 0 1.1224-0.503 1.1224-1.122 0-0.62-0.5025-1.122-1.1224-1.122-0.6198 0-1.1223 0.502-1.1223 1.122 0 0.619 0.5025 1.122 1.1223 1.122zm6.4354-5.416c0.7652 0 1.3854-0.62 1.3854-1.384 0-0.765-0.6202-1.385-1.3854-1.385-0.7651 0-1.3853 0.62-1.3853 1.385 0 0.764 0.6202 1.384 1.3853 1.384zm8.0503-4.452c1.23 0 2.2271-0.996 2.2271-2.226 0-1.229-0.9971-2.225-2.2271-2.225s-2.2271 0.996-2.2271 2.225c0 1.23 0.9971 2.226 2.2271 2.226zm291.12-39.729c0.175 0 0.316-0.142 0.316-0.316s-0.141-0.315-0.316-0.315c-0.174 0-0.315 0.141-0.315 0.315s0.141 0.316 0.315 0.316zm-8.557 7.342c0.31 0 0.561-0.251 0.561-0.561 0-0.309-0.251-0.561-0.561-0.561s-0.561 0.252-0.561 0.561c0 0.31 0.251 0.561 0.561 0.561zm-5.874 6.432c0.494 0 0.894-0.4 0.894-0.894 0-0.493-0.4-0.893-0.894-0.893s-0.895 0.4-0.895 0.893c0 0.494 0.401 0.894 0.895 0.894zm-7.437 6.046c0.62 0 1.122-0.502 1.122-1.121 0-0.62-0.502-1.122-1.122-1.122s-1.123 0.502-1.123 1.122c0 0.619 0.503 1.121 1.123 1.121zm-6.822 5.468c0.765 0 1.386-0.62 1.386-1.384 0-0.765-0.621-1.385-1.386-1.385s-1.385 0.62-1.385 1.385c0 0.764 0.62 1.384 1.385 1.384zm-8.399 5.573c1.23 0 2.227-0.996 2.227-2.225 0-1.23-0.997-2.226-2.227-2.226s-2.227 0.996-2.227 2.226c0 1.229 0.997 2.225 2.227 2.225zm-8.769 4.68c1.54 0 2.789-1.248 2.789-2.787s-1.249-2.786-2.789-2.786c-1.539 0-2.788 1.247-2.788 2.786s1.249 2.787 2.788 2.787zm-236.76-8.272c1.54 0 2.7883-1.247 2.7883-2.786s-1.2483-2.787-2.7883-2.787c-1.5399 0-2.7883 1.248-2.7883 2.787s1.2484 2.786 2.7883 2.786zm236.18 16.509c1.54 0 2.788-1.247 2.788-2.786s-1.248-2.787-2.788-2.787-2.788 1.248-2.788 2.787 1.248 2.786 2.788 2.786zm-235.6-24.746c1.54 0 2.7883-1.247 2.7883-2.786s-1.2483-2.787-2.7883-2.787c-1.5399 0-2.7883 1.248-2.7883 2.787s1.2484 2.786 2.7883 2.786zm234.46 32.931c1.54 0 2.788-1.248 2.788-2.787s-1.248-2.786-2.788-2.786-2.788 1.247-2.788 2.786 1.248 2.787 2.788 2.787zm-233.32-41.115c1.5399 0 2.7883-1.248 2.7883-2.787s-1.2484-2.786-2.7883-2.786c-1.54 0-2.7883 1.247-2.7883 2.786s1.2483 2.787 2.7883 2.787zm231.6 49.194c1.54 0 2.789-1.248 2.789-2.787s-1.249-2.786-2.789-2.786c-1.539 0-2.788 1.247-2.788 2.786s1.249 2.787 2.788 2.787zm-229.89-57.273c1.54 0 2.7883-1.248 2.7883-2.787s-1.2483-2.786-2.7883-2.786c-1.5399 0-2.7883 1.247-2.7883 2.786s1.2484 2.787 2.7883 2.787zm227.61 65.229c1.54 0 2.788-1.248 2.788-2.787s-1.248-2.786-2.788-2.786-2.789 1.247-2.789 2.786 1.249 2.787 2.789 2.787zm-225.33-73.169c1.5399 0 2.7883-1.247 2.7883-2.786s-1.2484-2.787-2.7883-2.787c-1.54 0-2.7883 1.248-2.7883 2.787s1.2483 2.786 2.7883 2.786zm222.48 80.933c1.54 0 2.789-1.248 2.789-2.787s-1.249-2.786-2.789-2.786-2.788 1.247-2.788 2.786 1.248 2.787 2.788 2.787zm-219.65-88.696c1.54 0 2.7883-1.248 2.7883-2.787s-1.2483-2.786-2.7883-2.786c-1.5399 0-2.7883 1.247-2.7883 2.786s1.2484 2.787 2.7883 2.787zm216.3 96.232c1.54 0 2.788-1.248 2.788-2.787s-1.248-2.786-2.788-2.786-2.789 1.247-2.789 2.786 1.249 2.787 2.789 2.787zm-212.95-103.79c1.54 0 2.7883-1.247 2.7883-2.786s-1.2483-2.787-2.7883-2.787c-1.5399 0-2.7883 1.248-2.7883 2.787s1.2484 2.786 2.7883 2.786zm209.05 111.09c1.54 0 2.788-1.248 2.788-2.787s-1.248-2.786-2.788-2.786-2.788 1.247-2.788 2.786 1.248 2.787 2.788 2.787zm-205.16-118.38c1.5399 0 2.7883-1.248 2.7883-2.787s-1.2484-2.786-2.7883-2.786-2.7883 1.247-2.7883 2.786 1.2484 2.787 2.7883 2.787zm200.78 125.38c1.54 0 2.789-1.248 2.789-2.787s-1.249-2.786-2.789-2.786-2.788 1.247-2.788 2.786 1.248 2.787 2.788 2.787zm-196.39-132.39c1.5399 0 2.7883-1.248 2.7883-2.787s-1.2484-2.7866-2.7883-2.7866c-1.54 0-2.7883 1.2476-2.7883 2.7866s1.2483 2.787 2.7883 2.787zm191.53 139.08c1.54 0 2.788-1.248 2.788-2.787s-1.248-2.787-2.788-2.787-2.788 1.248-2.788 2.787 1.248 2.787 2.788 2.787zm-186.68-145.76c1.5399 0 2.7883-1.2476 2.7883-2.7866s-1.2484-2.7865-2.7883-2.7865-2.7883 1.2475-2.7883 2.7865 1.2484 2.7866 2.7883 2.7866zm181.36 152.09c1.539 0 2.788-1.248 2.788-2.787s-1.249-2.786-2.788-2.786c-1.54 0-2.789 1.247-2.789 2.786s1.249 2.787 2.789 2.787zm-176.05-158.43c1.5399 0 2.7883-1.2476 2.7883-2.7865 0-1.539-1.2484-2.7866-2.7883-2.7866-1.54 0-2.7883 1.2476-2.7883 2.7866 0 1.5389 1.2483 2.7865 2.7883 2.7865zm170.32 164.37c1.54 0 2.788-1.248 2.788-2.787s-1.248-2.786-2.788-2.786-2.788 1.247-2.788 2.786 1.248 2.787 2.788 2.787zm-164.58-170.31c1.5399 0 2.7883-1.2475 2.7883-2.7865s-1.2484-2.7865-2.7883-2.7865c-1.54 0-2.7883 1.2475-2.7883 2.7865s1.2483 2.7865 2.7883 2.7865zm158.43 175.85c1.54 0 2.789-1.247 2.789-2.786s-1.249-2.787-2.789-2.787-2.788 1.248-2.788 2.787 1.248 2.786 2.788 2.786zm-152.27-181.37c1.54 0 2.7883-1.2476 2.7883-2.7866 0-1.5389-1.2483-2.7865-2.7883-2.7865-1.5399 0-2.7883 1.2476-2.7883 2.7865 0 1.539 1.2484 2.7866 2.7883 2.7866zm145.76 186.45c1.539 0 2.788-1.248 2.788-2.787s-1.249-2.786-2.788-2.786c-1.54 0-2.789 1.247-2.789 2.786s1.249 2.787 2.789 2.787zm-139.26-191.55c1.5399 0 2.7883-1.2476 2.7883-2.7865 0-1.539-1.2484-2.7866-2.7883-2.7866-1.54 0-2.7883 1.2476-2.7883 2.7866 0 1.5389 1.2483 2.7865 2.7883 2.7865zm132.4 196.18c1.54 0 2.788-1.248 2.788-2.787s-1.248-2.786-2.788-2.786-2.788 1.247-2.788 2.786 1.248 2.787 2.788 2.787zm-125.54-200.79c1.54 0 2.788-1.2476 2.788-2.7865 0-1.539-1.248-2.7866-2.788-2.7866s-2.789 1.2476-2.789 2.7866c0 1.5389 1.249 2.7865 2.789 2.7865zm118.39 204.91c1.54 0 2.788-1.248 2.788-2.787s-1.248-2.786-2.788-2.786-2.789 1.247-2.789 2.786 1.249 2.787 2.789 2.787zm-111.24-209.04c1.54 0 2.789-1.2476 2.789-2.7866 0-1.5389-1.249-2.7865-2.789-2.7865s-2.788 1.2476-2.788 2.7865c0 1.539 1.248 2.7866 2.788 2.7866zm103.8 212.67c1.54 0 2.788-1.247 2.788-2.786s-1.248-2.787-2.788-2.787-2.789 1.248-2.789 2.787 1.249 2.786 2.789 2.786zm-96.363-216.3c1.54 0 2.789-1.2475 2.789-2.7865s-1.249-2.7866-2.789-2.7866-2.788 1.2476-2.788 2.7866 1.248 2.7865 2.788 2.7865zm88.7 219.4c1.54 0 2.788-1.247 2.788-2.786s-1.248-2.787-2.788-2.787-2.789 1.248-2.789 2.787 1.249 2.786 2.789 2.786zm-81.036-222.48c1.539 0 2.788-1.2476 2.788-2.7866s-1.249-2.7865-2.788-2.7865c-1.54 0-2.789 1.2475-2.789 2.7865s1.249 2.7866 2.789 2.7866zm73.161 225.03c1.54 0 2.788-1.247 2.788-2.786s-1.248-2.787-2.788-2.787-2.788 1.248-2.788 2.787 1.248 2.786 2.788 2.786zm-65.288-227.58c1.54 0 2.788-1.2476 2.788-2.7865 0-1.539-1.248-2.7866-2.788-2.7866s-2.788 1.2476-2.788 2.7866c0 1.5389 1.248 2.7865 2.788 2.7865zm57.274 229.58c1.54 0 2.789-1.248 2.789-2.787s-1.249-2.786-2.789-2.786c-1.539 0-2.788 1.247-2.788 2.786s1.249 2.787 2.788 2.787zm-49.26-231.58c1.54 0 2.789-1.2476 2.789-2.7865 0-1.539-1.249-2.7866-2.789-2.7866s-2.788 1.2476-2.788 2.7866c0 1.5389 1.248 2.7865 2.788 2.7865zm41.124 233.02c1.54 0 2.789-1.247 2.789-2.786s-1.249-2.787-2.789-2.787-2.788 1.248-2.788 2.787 1.248 2.786 2.788 2.786zm-32.987-234.46c1.54 0 2.788-1.2476 2.788-2.7866 0-1.5389-1.248-2.7865-2.788-2.7865s-2.788 1.2476-2.788 2.7865c0 1.539 1.248 2.7866 2.788 2.7866zm24.761 235.33c1.54 0 2.788-1.247 2.788-2.786s-1.248-2.787-2.788-2.787-2.788 1.248-2.788 2.787 1.248 2.786 2.788 2.786zm-16.537-236.19c1.54 0 2.788-1.2476 2.788-2.7866 0-1.5389-1.248-2.7865-2.788-2.7865s-2.788 1.2476-2.788 2.7865c0 1.539 1.248 2.7866 2.788 2.7866zm-100.57 107.22c1.8305 0 3.3144-1.483 3.3144-3.313 0-1.829-1.4839-3.312-3.3144-3.312s-3.3144 1.483-3.3144 3.312c0 1.83 1.4839 3.313 3.3144 3.313zm217.61 22.835c1.83 0 3.314-1.483 3.314-3.312 0-1.83-1.484-3.313-3.314-3.313-1.831 0-3.315 1.483-3.315 3.313 0 1.829 1.484 3.312 3.315 3.312zm-97.399-120.17c1.831 0 3.315-1.483 3.315-3.3123s-1.484-3.3123-3.315-3.3123c-1.83 0-3.314 1.483-3.314 3.3123s1.484 3.3123 3.314 3.3123zm-22.849 217.47c1.83 0 3.314-1.483 3.314-3.312s-1.484-3.312-3.314-3.312c-1.831 0-3.315 1.483-3.315 3.312s1.484 3.312 3.315 3.312zm-95.574-131.44c1.8305 0 3.3144-1.483 3.3144-3.312s-1.4839-3.312-3.3144-3.312-3.3144 1.483-3.3144 3.312 1.4839 3.312 3.3144 3.312zm214.03 45.444c1.83 0 3.314-1.483 3.314-3.313 0-1.829-1.484-3.312-3.314-3.312-1.831 0-3.315 1.483-3.315 3.312 0 1.83 1.484 3.313 3.315 3.313zm-84.298-129.69c1.831 0 3.315-1.483 3.315-3.3123s-1.484-3.3123-3.315-3.3123c-1.83 0-3.314 1.483-3.314 3.3123s1.484 3.3123 3.314 3.3123zm-45.473 213.9c1.831 0 3.315-1.483 3.315-3.313 0-1.829-1.484-3.312-3.315-3.312-1.83 0-3.314 1.483-3.314 3.312 0 1.83 1.484 3.313 3.314 3.313zm-81.298-140.71c1.8305 0 3.3144-1.483 3.3144-3.313 0-1.829-1.4839-3.312-3.3144-3.312s-3.3144 1.483-3.3144 3.312c0 1.83 1.4839 3.313 3.3144 3.313zm208.11 67.56c1.831 0 3.315-1.483 3.315-3.312s-1.484-3.312-3.315-3.312c-1.83 0-3.314 1.483-3.314 3.312s1.484 3.312 3.314 3.312zm-70.269-137.78c1.831 0 3.315-1.483 3.315-3.3123s-1.484-3.3123-3.315-3.3123c-1.83 0-3.314 1.483-3.314 3.3123s1.484 3.3123 3.314 3.3123zm-67.586 207.97c1.831 0 3.315-1.483 3.315-3.312 0-1.83-1.484-3.312-3.315-3.312-1.83 0-3.314 1.482-3.314 3.312 0 1.829 1.484 3.312 3.314 3.312zm-66.147-148.44c1.8305 0 3.3144-1.483 3.3144-3.312s-1.4839-3.312-3.3144-3.312-3.3144 1.483-3.3144 3.312 1.4839 3.312 3.3144 3.312zm199.9 88.925c1.83 0 3.314-1.483 3.314-3.313 0-1.829-1.484-3.312-3.314-3.312-1.831 0-3.315 1.483-3.315 3.312 0 1.83 1.484 3.313 3.315 3.313zm-55.468-144.36c1.83 0 3.314-1.4829 3.314-3.3123 0-1.8293-1.484-3.3123-3.314-3.3123-1.831 0-3.315 1.483-3.315 3.3123 0 1.8294 1.484 3.3123 3.315 3.3123zm-88.98 199.77c1.831 0 3.315-1.483 3.315-3.312 0-1.83-1.484-3.313-3.315-3.313-1.83 0-3.314 1.483-3.314 3.313 0 1.829 1.484 3.312 3.314 3.312zm-50.26-154.54c1.8304 0 3.3143-1.483 3.3143-3.313 0-1.829-1.4839-3.312-3.3143-3.312-1.8305 0-3.3144 1.483-3.3144 3.312 0 1.83 1.4839 3.313 3.3144 3.313zm189.5 109.32c1.831 0 3.315-1.483 3.315-3.312 0-1.83-1.484-3.313-3.315-3.313-1.83 0-3.314 1.483-3.314 3.313 0 1.829 1.484 3.312 3.314 3.312zm-40.052-149.37c1.831 0 3.315-1.483 3.315-3.3123 0-1.8294-1.484-3.3123-3.315-3.3123-1.83 0-3.314 1.4829-3.314 3.3123 0 1.8293 1.484 3.3123 3.314 3.3123zm-109.39 189.4c1.83 0 3.314-1.483 3.314-3.312s-1.484-3.312-3.314-3.312c-1.831 0-3.315 1.483-3.315 3.312s1.484 3.312 3.315 3.312zm-33.829-158.94c1.8304 0 3.3143-1.483 3.3143-3.312 0-1.83-1.4839-3.3128-3.3143-3.3128-1.8305 0-3.3144 1.4828-3.3144 3.3128 0 1.829 1.4839 3.312 3.3144 3.312zm177.05 128.51c1.831 0 3.315-1.483 3.315-3.312 0-1.83-1.484-3.313-3.315-3.313-1.83 0-3.314 1.483-3.314 3.313 0 1.829 1.484 3.312 3.314 3.312zm-24.218-152.73c1.831 0 3.314-1.483 3.314-3.3124 0-1.8293-1.483-3.3123-3.314-3.3123-1.83 0-3.314 1.483-3.314 3.3123 0 1.8294 1.484 3.3124 3.314 3.3124zm-128.61 176.92c1.831 0 3.315-1.483 3.315-3.313 0-1.829-1.484-3.312-3.315-3.312-1.83 0-3.3142 1.483-3.3142 3.312 0 1.83 1.4842 3.313 3.3142 3.313zm-17.01-161.6c1.8304 0 3.3143-1.483 3.3143-3.3123s-1.4839-3.3123-3.3143-3.3123c-1.8305 0-3.3144 1.483-3.3144 3.3123s1.4839 3.3123 3.3144 3.3123zm162.63 146.3c1.83 0 3.314-1.483 3.314-3.313 0-1.829-1.484-3.312-3.314-3.312-1.831 0-3.315 1.483-3.315 3.312 0 1.83 1.484 3.313 3.315 3.313zm-8.119-154.42c1.831 0 3.315-1.483 3.315-3.3123s-1.484-3.3123-3.315-3.3123c-1.83 0-3.314 1.483-3.314 3.3123s1.484 3.3123 3.314 3.3123zm-146.4 162.51c1.8305 0 3.3144-1.483 3.3144-3.312s-1.4839-3.312-3.3144-3.312-3.3144 1.483-3.3144 3.312 1.4839 3.312 3.3144 3.312zm-0.0161-162.5c1.8305 0 3.3144-1.483 3.3144-3.3123 0-1.8294-1.4839-3.3124-3.3144-3.3124s-3.3144 1.483-3.3144 3.3124c0 1.8293 1.4839 3.3123 3.3144 3.3123zm146.43 162.5c1.83 0 3.314-1.483 3.314-3.312s-1.484-3.312-3.314-3.312c-1.831 0-3.315 1.483-3.315 3.312s1.484 3.312 3.315 3.312zm8.084-154.43c1.83 0 3.314-1.4829 3.314-3.3123 0-1.8293-1.484-3.3123-3.314-3.3123-1.831 0-3.315 1.483-3.315 3.3123 0 1.8294 1.484 3.3123 3.315 3.3123zm-162.6 146.34c1.8304 0 3.3143-1.483 3.3143-3.313 0-1.829-1.4839-3.312-3.3143-3.312-1.8305 0-3.3144 1.483-3.3144 3.312 0 1.83 1.4839 3.313 3.3144 3.313zm16.977-161.6c1.83 0 3.314-1.4829 3.314-3.3123 0-1.8293-1.484-3.3123-3.314-3.3123-1.831 0-3.3148 1.483-3.3148 3.3123 0 1.8294 1.4838 3.3123 3.3148 3.3123zm128.63 176.9c1.831 0 3.314-1.483 3.314-3.313 0-1.829-1.483-3.312-3.314-3.312-1.83 0-3.314 1.483-3.314 3.312 0 1.83 1.484 3.313 3.314 3.313zm24.201-152.74c1.83 0 3.314-1.483 3.314-3.313 0-1.829-1.484-3.3119-3.314-3.3119-1.831 0-3.315 1.4829-3.315 3.3119 0 1.83 1.484 3.313 3.315 3.313zm-177.01 128.55c1.8305 0 3.3144-1.483 3.3144-3.312 0-1.83-1.4839-3.313-3.3144-3.313s-3.3144 1.483-3.3144 3.313c0 1.829 1.4839 3.312 3.3144 3.312zm33.793-158.94c1.83 0 3.314-1.483 3.314-3.3123s-1.484-3.3123-3.314-3.3123-3.314 1.483-3.314 3.3123 1.484 3.3123 3.314 3.3123zm109.43 189.36c1.831 0 3.315-1.483 3.315-3.312s-1.484-3.312-3.315-3.312c-1.83 0-3.314 1.483-3.314 3.312s1.484 3.312 3.314 3.312zm40.036-149.37c1.831 0 3.315-1.483 3.315-3.312 0-1.83-1.484-3.313-3.315-3.313-1.83 0-3.314 1.483-3.314 3.313 0 1.829 1.484 3.312 3.314 3.312zm-189.48 109.34c1.8305 0 3.3144-1.483 3.3144-3.312 0-1.83-1.4839-3.313-3.3144-3.313s-3.3144 1.483-3.3144 3.313c0 1.829 1.4839 3.312 3.3144 3.312zm50.224-154.54c1.83 0 3.314-1.4829 3.314-3.3123 0-1.8293-1.484-3.3123-3.314-3.3123-1.831 0-3.315 1.483-3.315 3.3123 0 1.8294 1.484 3.3123 3.315 3.3123zm89.015 199.76c1.831 0 3.315-1.483 3.315-3.312 0-1.83-1.484-3.313-3.315-3.313-1.83 0-3.314 1.483-3.314 3.313 0 1.829 1.484 3.312 3.314 3.312zm55.433-144.38c1.831 0 3.315-1.483 3.315-3.312 0-1.83-1.484-3.313-3.315-3.313-1.83 0-3.314 1.483-3.314 3.313 0 1.829 1.484 3.312 3.314 3.312zm-199.88 88.96c1.8305 0 3.3144-1.483 3.3144-3.313 0-1.829-1.4839-3.312-3.3144-3.312s-3.3144 1.483-3.3144 3.312c0 1.83 1.4839 3.313 3.3144 3.313zm55.433-144.34c1.83 0 3.314-1.4829 3.314-3.3123 0-1.8293-1.484-3.3123-3.314-3.3123-1.831 0-3.315 1.483-3.315 3.3123 0 1.8294 1.484 3.3123 3.315 3.3123zm89.015 199.76c1.831 0 3.315-1.483 3.315-3.312 0-1.83-1.484-3.313-3.315-3.313-1.83 0-3.314 1.483-3.314 3.313 0 1.829 1.484 3.312 3.314 3.312zm55.433-144.38c1.831 0 3.315-1.483 3.315-3.312 0-1.83-1.484-3.313-3.315-3.313-1.83 0-3.314 1.483-3.314 3.313 0 1.829 1.484 3.312 3.314 3.312zm-199.88 88.96c1.8305 0 3.3144-1.483 3.3144-3.313 0-1.829-1.4839-3.312-3.3144-3.312s-3.3144 1.483-3.3144 3.312c0 1.83 1.4839 3.313 3.3144 3.313zm66.13-148.44c1.83 0 3.314-1.483 3.314-3.3123s-1.484-3.3123-3.314-3.3123c-1.831 0-3.315 1.483-3.315 3.3123s1.484 3.3123 3.315 3.3123zm67.622 207.96c1.83 0 3.314-1.483 3.314-3.312 0-1.83-1.484-3.312-3.314-3.312-1.831 0-3.315 1.482-3.315 3.312 0 1.829 1.484 3.312 3.315 3.312zm70.25-137.79c1.831 0 3.315-1.482 3.315-3.312 0-1.829-1.484-3.312-3.315-3.312-1.83 0-3.314 1.483-3.314 3.312 0 1.83 1.484 3.312 3.314 3.312zm-208.11 67.596c1.8305 0 3.3144-1.483 3.3144-3.312s-1.4839-3.312-3.3144-3.312-3.3144 1.483-3.3144 3.312 1.4839 3.312 3.3144 3.312zm81.282-140.73c1.83 0 3.314-1.4829 3.314-3.3123 0-1.8293-1.484-3.3123-3.314-3.3123-1.831 0-3.315 1.483-3.315 3.3123 0 1.8294 1.484 3.3123 3.315 3.3123zm45.524 213.88c1.83 0 3.314-1.483 3.314-3.313 0-1.829-1.484-3.312-3.314-3.312-1.831 0-3.315 1.483-3.315 3.312 0 1.83 1.484 3.313 3.315 3.313zm84.263-129.69c1.83 0 3.314-1.483 3.314-3.312s-1.484-3.312-3.314-3.312c-1.831 0-3.315 1.483-3.315 3.312s1.484 3.312 3.315 3.312zm-214.03 45.479c1.8305 0 3.3144-1.483 3.3144-3.313 0-1.829-1.4839-3.312-3.3144-3.312s-3.3144 1.483-3.3144 3.312c0 1.83 1.4839 3.313 3.3144 3.313zm95.556-131.46c1.83 0 3.314-1.483 3.314-3.3123 0-1.8294-1.484-3.3123-3.314-3.3123-1.831 0-3.315 1.4829-3.315 3.3123 0 1.8293 1.484 3.3123 3.315 3.3123zm22.902 217.47c1.83 0 3.314-1.483 3.314-3.312 0-1.83-1.484-3.313-3.314-3.313-1.831 0-3.315 1.483-3.315 3.313 0 1.829 1.484 3.312 3.315 3.312zm97.364-120.19c1.83 0 3.314-1.483 3.314-3.313 0-1.829-1.484-3.312-3.314-3.312-1.831 0-3.315 1.483-3.315 3.312 0 1.83 1.484 3.313 3.315 3.313zm-217.61 22.871c1.8305 0 3.3144-1.483 3.3144-3.312 0-1.83-1.4839-3.313-3.3144-3.313s-3.3144 1.483-3.3144 3.313c0 1.829 1.4839 3.312 3.3144 3.312zm108.85 106.42c1.54 0 2.789-1.248 2.789-2.787s-1.249-2.786-2.789-2.786-2.788 1.247-2.788 2.786 1.248 2.787 2.788 2.787zm0-236.75c1.54 0 2.789-1.2476 2.789-2.7866s-1.249-2.7865-2.789-2.7865-2.788 1.2475-2.788 2.7865 1.248 2.7866 2.788 2.7866zm-0.07 9.5693c1.83 0 3.314-1.483 3.314-3.3123 0-1.8294-1.484-3.3123-3.314-3.3123-1.831 0-3.315 1.4829-3.315 3.3123 0 1.8293 1.484 3.3123 3.315 3.3123zm0.017 218.68c1.831 0 3.315-1.483 3.315-3.312s-1.484-3.312-3.315-3.312c-1.83 0-3.314 1.483-3.314 3.312s1.484 3.312 3.314 3.312zm-164.23-83.386c0.17433 0 0.31565-0.141 0.31565-0.315 0-0.175-0.14132-0.316-0.31565-0.316-0.17434 0-0.31566 0.141-0.31566 0.316 0 0.174 0.14132 0.315 0.31566 0.315zm8.5403-6.852c0.3099 0 0.5611-0.251 0.5611-0.561 0-0.309-0.2512-0.561-0.5611-0.561s-0.5612 0.252-0.5612 0.561c0 0.31 0.2513 0.561 0.5612 0.561zm5.8727-5.766c0.494 0 0.8944-0.4 0.8944-0.894s-0.4004-0.894-0.8944-0.894c-0.4939 0-0.8943 0.4-0.8943 0.894s0.4004 0.894 0.8943 0.894zm7.4546-5.59c0.6198 0 1.1223-0.502 1.1223-1.122 0-0.619-0.5025-1.122-1.1223-1.122-0.6199 0-1.1224 0.503-1.1224 1.122 0 0.62 0.5025 1.122 1.1224 1.122zm6.8206-4.943c0.7651 0 1.3854-0.619 1.3854-1.384s-0.6203-1.385-1.3854-1.385-1.3854 0.62-1.3854 1.385 0.6203 1.384 1.3854 1.384zm8.3828-3.891c1.23 0 2.2271-0.996 2.2271-2.225 0-1.23-0.9971-2.226-2.2271-2.226s-2.2271 0.996-2.2271 2.226c0 1.229 0.9971 2.225 2.2271 2.225zm236.57 1.069c1.83 0 3.314-1.483 3.314-3.312s-1.484-3.312-3.314-3.312c-1.831 0-3.315 1.483-3.315 3.312s1.484 3.312 3.315 3.312zm-218.8 0.018c1.8305 0 3.3144-1.483 3.3144-3.312s-1.4839-3.312-3.3144-3.312-3.3144 1.483-3.3144 3.312 1.4839 3.312 3.3144 3.312zm109.8 9.534c-5.717 0-10.346 4.644-10.346 10.34v14.406h5.611v-6.485h9.487v6.485h5.612v-14.406c0-5.696-4.647-10.34-10.364-10.34zm4.752 13.127h-9.487v-2.033c0-3.488 1.736-5.503 4.753-5.503 3.016 0 4.752 1.997 4.752 5.503v2.033zm-34.634-12.601h-8.927v24.22h8.927c6.891 0 11.889-5.1 11.889-12.11s-4.998-12.11-11.889-12.11zm0 18.612h-3.315v-13.021h3.315c3.7 0 6.278 2.681 6.278 6.502 0 3.855-2.578 6.519-6.278 6.519zm63.359-48.826v-5.608h-15.993v24.238h15.993v-5.608h-10.381v-3.943h10.381v-5.135h-10.381v-3.944zm30.548 15.703 0.245-0.228-2.77-5.24-0.404 0.438c-1.806 1.981-3.823 2.892-6.365 2.892-4.034 0-6.998-2.997-6.998-7.063s2.999-7.063 7.068-7.063c2.244 0 4.138 0.807 5.997 2.699l0.404 0.421 2.7-5.153-0.245-0.227c-2.42-2.244-5.296-3.348-8.821-3.348-7.243 0-12.697 5.433-12.697 12.619 0 7.238 5.437 12.688 12.662 12.688 3.7 0.035 6.629-1.069 9.224-3.435zm14.118 2.927h5.611v-18.63h7.243v-5.608h-20.079v5.608h7.225zm-34.67 13.547 0.053-0.035c0.21-0.14 0.333-0.333 0.333-0.561 0-0.42-0.351-0.771-0.772-0.771h-0.912v2.173h0.421v-0.683h0.246c0.158 0 0.28 0.052 0.386 0.157 0.175 0.176 0.21 0.439 0.21 0.544h0.439c0-0.526-0.316-0.754-0.404-0.824zm-0.368-0.263h-0.491v-0.666h0.491c0.193 0 0.333 0.158 0.333 0.333s-0.158 0.333-0.333 0.333zm-124.32-37.505h-10.557v24.221h5.6116v-6.835h4.9453c4.805 0 8.6981-3.891 8.6981-8.693s-3.8931-8.693-8.6981-8.693zm0 11.777h-4.9453v-6.186h4.9453c1.7011 0 3.0865 1.385 3.0865 3.084 0 1.7-1.3679 3.102-3.0865 3.102zm63.482 12.444c0-6.204-3.98-9.009-3.98-9.009 2.49-1.524 3.752-3.785 3.752-6.519 0-4.802-3.893-8.693-8.698-8.693h-10.311v24.221h5.612v-7.414h2.157c5.927 0 5.857 7.414 5.857 7.414zm-8.943-12.444h-4.7v-6.186h4.7c1.701 0 3.086 1.385 3.086 3.084 0 1.7-1.368 3.102-3.086 3.102zm17.869 12.444h5.612v-8.132h10.382v-5.135h-10.382v-5.363h10.382v-5.608h-15.994zm32.128 35.804h5.611v-8.745l9.102-15.475h-6.524l-5.383 9.411-5.367-9.411h-6.541l9.102 15.475zm-71.427-41.412h-10.382v-3.943h10.382v-5.135h-10.382v-3.944h10.382v-5.608h-15.993v24.238h15.993zm91.049 16.666c-1.21 0-2.209 0.981-2.209 2.208 0 1.209 0.982 2.208 2.209 2.208 1.21 0 2.21-0.981 2.21-2.208s-0.982-2.208-2.21-2.208zm0 4.013c-0.999 0-1.806-0.806-1.806-1.805s0.807-1.805 1.806-1.805c1 0 1.806 0.806 1.806 1.805 0 0.982-0.806 1.805-1.806 1.805z" fill="#14245f"></path></svg> 